<svg width="43" height="43" viewBox="0 0 43 43" fill="none" xmlns="http://www.w3.org/2000/svg">
<path d="M31.8296 10.5362L28.0879 8.2912L24.3463 10.5362L25.0451 11.6991L27.4095 10.2804V20.6159H20.625V27.4004H13.8405V34.1849H7.05599V40.9694H0.271484V42.3263H8.41289V35.5418H15.1974V28.7573H21.9819V21.9728H28.7664V10.2804L31.1308 11.6991L31.8296 10.5362Z" fill="#0D78F0"/>
<path d="M39.3554 7.68402C41.0298 7.47709 42.3351 6.06252 42.3351 4.33315V0.262451H39.6213H38.9429H33.5153H32.8368H30.123V4.33315C30.123 6.06252 31.4284 7.47709 33.1028 7.68402C33.5323 8.70101 34.4448 9.46698 35.5506 9.69223V13.8315H30.123V15.1884H42.3351V13.8315H36.9075V9.69223C38.0141 9.46631 38.9259 8.70101 39.3554 7.68402ZM39.6213 1.61935H40.9782V4.33315C40.9782 5.21649 40.409 5.96279 39.6213 6.24367V1.61935ZM32.8368 6.24367C32.0485 5.96279 31.4799 5.21649 31.4799 4.33315V1.61935H32.8368V6.24367ZM36.2291 8.40385C35.1069 8.40385 34.1937 7.49066 34.1937 6.3685V1.61935H38.2644V6.3685C38.2644 7.49066 37.3513 8.40385 36.2291 8.40385Z" fill="#0D78F0"/>
<path d="M9.77148 42.3263H15.1991V36.8987H9.77148V42.3263ZM11.1284 38.2556H13.8422V40.9694H11.1284V38.2556Z" fill="#0D78F0"/>
<path d="M16.5566 42.3261H21.9842V30.114H16.5566V42.3261ZM17.9135 31.4709H20.6273V40.9692H17.9135V31.4709Z" fill="#0D78F0"/>
<path d="M23.3379 42.3264H28.7655V23.3298H23.3379V42.3264ZM24.6948 24.6867H27.4086V40.9695H24.6948V24.6867Z" fill="#0D78F0"/>
<path d="M30.123 42.3263H35.5506V16.5452H30.123V42.3263ZM31.4799 17.9021H34.1937V40.9694H31.4799V17.9021Z" fill="#0D78F0"/>
<path d="M36.9082 42.3263H42.3358V16.5452H36.9082V42.3263ZM38.2651 17.9021H40.9789V40.9694H38.2651V17.9021Z" fill="#0D78F0"/>
<path d="M2.98529 22.6513C4.48195 22.6513 5.69909 21.4342 5.69909 19.9375C5.69909 19.0277 5.2452 18.2258 4.55658 17.7332L7.88777 12.1808C8.25209 12.3626 8.65713 12.4746 9.09134 12.4746C9.63478 12.4746 10.1395 12.3104 10.5643 12.0342L14.1655 14.6062C13.9646 14.9848 13.8405 15.4095 13.8405 15.8668C13.8405 17.3635 15.0576 18.5806 16.5543 18.5806C18.0509 18.5806 19.2681 17.3635 19.2681 15.8668C19.2681 15.0628 18.9105 14.3478 18.3535 13.8505L22.7431 5.61949C22.9358 5.66291 23.1339 5.69005 23.3388 5.69005C24.8355 5.69005 26.0526 4.47291 26.0526 2.97625C26.0526 1.47959 24.8355 0.262451 23.3388 0.262451C21.8421 0.262451 20.625 1.47959 20.625 2.97625C20.625 3.78022 20.9825 4.4953 21.5395 4.99261L17.15 13.2236C16.9573 13.1801 16.7592 13.153 16.5543 13.153C16.0108 13.153 15.5061 13.3172 15.0814 13.5933L11.4802 11.0213C11.681 10.6427 11.8051 10.218 11.8051 9.76075C11.8051 8.26409 10.588 7.04695 9.09134 7.04695C7.59468 7.04695 6.37754 8.26409 6.37754 9.76075C6.37754 10.3239 6.55054 10.847 6.84499 11.2812L3.26277 17.2515C3.1705 17.242 3.08027 17.2237 2.98529 17.2237C1.48862 17.2237 0.271484 18.4408 0.271484 19.9375C0.271484 21.4342 1.48862 22.6513 2.98529 22.6513ZM23.3388 1.61935C24.0864 1.61935 24.6957 2.2286 24.6957 2.97625C24.6957 3.7239 24.0864 4.33315 23.3388 4.33315C22.5905 4.33315 21.9819 3.7239 21.9819 2.97625C21.9819 2.2286 22.5905 1.61935 23.3388 1.61935ZM16.5543 14.5099C17.3019 14.5099 17.9112 15.1185 17.9112 15.8668C17.9112 16.6151 17.3019 17.2237 16.5543 17.2237C15.806 17.2237 15.1974 16.6151 15.1974 15.8668C15.1974 15.1185 15.806 14.5099 16.5543 14.5099ZM9.09134 8.40385C9.83899 8.40385 10.4482 9.0131 10.4482 9.76075C10.4482 10.5084 9.83899 11.1177 9.09134 11.1177C8.34301 11.1177 7.73444 10.5091 7.73444 9.76075C7.73444 9.01242 8.34301 8.40385 9.09134 8.40385ZM2.98529 18.5806C3.73294 18.5806 4.34219 19.1892 4.34219 19.9375C4.34219 20.6858 3.73294 21.2944 2.98529 21.2944C2.23695 21.2944 1.62838 20.6858 1.62838 19.9375C1.62838 19.1892 2.23695 18.5806 2.98529 18.5806Z" fill="#0D78F0"/>
</svg>
