<svg width="59" height="58" viewBox="0 0 59 58" fill="none" xmlns="http://www.w3.org/2000/svg">
<path d="M29.4912 55.6947L41.1793 52.7431C47.8508 47.2033 52.1001 38.8474 52.1001 29.4981C52.1001 15.0772 41.9928 3.01711 28.4757 0.0151367C12.6522 0.548787 -0.0117188 13.5445 -0.0117188 29.498C-0.0117188 37.6925 3.33008 45.106 8.72443 50.4517L29.4912 55.6947Z" fill="white"/>
<path d="M51.4824 29.4995C51.4824 39.1694 46.8291 47.7516 39.6403 53.1317L50.2454 50.4535C55.6401 45.1078 58.9825 37.6943 58.9825 29.4995C58.9825 13.2071 45.7749 -0.000488281 29.4825 -0.000488281C28.2122 -0.000488281 26.9605 0.0799453 25.7324 0.235742C40.2542 2.07811 51.4824 14.4776 51.4824 29.4995Z" fill="#F1F4F8"/>
<path d="M36.8119 9.42288C36.8119 7.91619 35.5906 6.69482 34.0839 6.69482H24.6828C21.2153 6.69482 18.4043 9.50585 18.4043 12.9734V19.9442H40.5534V13.0722C40.5534 11.5656 39.332 10.3442 37.8253 10.3442H37.7334C37.2245 10.3442 36.8119 9.93176 36.8119 9.42288Z" fill="#365E7D"/>
<path d="M37.8288 10.3443H37.7369C37.228 10.3443 36.8155 9.93176 36.8155 9.42288C36.8155 7.91619 35.5941 6.69482 34.0874 6.69482H33.0566V19.9443H40.5568V13.0722C40.5569 11.5658 39.3354 10.3443 37.8288 10.3443Z" fill="#2B4D66"/>
<path d="M48.9624 41.1588C48.2412 40.4464 47.349 39.8955 46.3363 39.5749L38.2824 37.025L29.4845 36.7158L20.6829 37.025L12.629 39.5749C9.90444 40.4375 8.05273 42.966 8.05273 45.8239V48.0242C13.214 53.4781 20.4348 56.9627 28.4703 57.2338C37.4733 55.2341 44.9637 49.2162 48.9624 41.1588Z" fill="#4A80AA"/>
<path d="M50.9133 48.0246V45.8243C50.9133 43.8036 49.9868 41.9484 48.4813 40.7295C44.2048 49.4442 35.7569 55.7408 25.7402 57.0141C26.9493 57.1672 28.1807 57.2489 29.4307 57.2511C30.6318 57.2493 31.817 57.1797 32.9827 57.0458C40.0156 56.2147 46.2906 52.9095 50.9133 48.0246Z" fill="#407093"/>
<path d="M30.1519 56.8118C31.9368 53.2682 36.5845 43.2064 35.2592 36.9213L29.4858 34.6743L23.7071 36.9214C22.3408 43.4004 27.322 53.8928 28.9711 57.1208C29.3677 57.0256 29.7615 56.9225 30.1519 56.8118Z" fill="#E4F6FF"/>
<path d="M33.1941 54.0017L30.8532 44.7925H28.1144L25.7793 53.9765L28.6668 57.1912C29.3998 57.0233 30.1227 56.8287 30.8344 56.6085L33.1941 54.0017Z" fill="#E28086"/>
<path d="M28.7137 57.2385C28.9528 57.2447 29.1924 57.2489 29.4329 57.2494C29.7111 57.2489 29.9885 57.2441 30.2651 57.2364L31.7524 55.5933C30.5817 56.004 29.3774 56.343 28.1445 56.6049L28.7137 57.2385Z" fill="#DD636E"/>
<path d="M34.4282 36.0677V30.8745H24.5664V36.0677C24.5664 38.7909 29.4973 41.7655 29.4973 41.7655C29.4973 41.7655 34.4282 38.7909 34.4282 36.0677Z" fill="#FFDDCE"/>
<path d="M40.5553 19.0312H38.6702C37.6218 19.0312 36.772 18.1814 36.772 17.133V16.0941C36.772 14.7285 35.4358 13.7629 34.1392 14.1915C31.1151 15.191 27.8498 15.1913 24.8256 14.1922L24.822 14.191C23.5254 13.7627 22.1895 14.7283 22.1895 16.0938V17.1331C22.1895 18.1815 21.3397 19.0313 20.2913 19.0313H18.4062V22.1355C18.4062 22.9287 19.0493 23.5718 19.8425 23.5718C20.0928 23.5718 20.2964 23.7678 20.3122 24.0176C20.6151 28.8192 24.603 32.6203 29.4808 32.6203C34.3587 32.6203 38.3466 28.8192 38.6495 24.0176C38.6653 23.7679 38.8689 23.5718 39.1192 23.5718C39.9123 23.5718 40.5554 22.9288 40.5554 22.1355V19.0312H40.5553Z" fill="#FFDDCE"/>
<path d="M38.6712 19.0309C37.6228 19.0309 36.773 18.181 36.773 17.1326V16.0938C36.773 14.7281 35.4368 13.7626 34.1402 14.1911C33.7821 14.3095 33.4203 14.4127 33.0562 14.5031V24.7557C33.0057 28.0915 31.1779 30.9947 28.4785 32.5638C28.8082 32.5996 29.1426 32.6198 29.4817 32.6198C34.3596 32.6198 38.3475 28.8186 38.6504 24.0171C38.6662 23.7673 38.8698 23.5712 39.1201 23.5712C39.9132 23.5712 40.5564 22.9282 40.5564 22.1349V19.0307H38.6712V19.0309Z" fill="#FFCBBE"/>
<path d="M24.5487 34.6743L20.6816 37.8164L24.737 42.8306C25.2303 43.3109 26.0067 43.3404 26.5352 42.899L29.5849 40.3516L24.5487 34.6743Z" fill="#F4FBFF"/>
<path d="M34.4075 34.6748L29.5801 40.352L32.4464 42.8028C32.9715 43.2518 33.7517 43.2292 34.25 42.7506L38.2762 37.8169L34.4075 34.6748Z" fill="#F4FBFF"/>
<path d="M24.5512 34.6748L18.8752 37.4634C18.4431 37.6756 18.2695 38.2013 18.4902 38.6292L19.6022 40.7852C19.8904 41.3439 19.7841 42.0247 19.3393 42.4688C19.1103 42.6973 18.8623 42.9448 18.6474 43.1594C18.2627 43.5434 18.1246 44.1107 18.294 44.6271C19.6366 48.7199 26.0982 54.9784 28.5436 57.2428C28.708 57.2471 28.8728 57.2501 29.038 57.252C27.2646 53.8027 20.9805 40.698 24.5512 34.6748Z" fill="#365E7D"/>
<path d="M39.6308 42.4687C39.1859 42.0246 39.0796 41.3438 39.3678 40.7851L40.4798 38.6291C40.7005 38.2012 40.527 37.6755 40.0948 37.4632L34.4189 34.6748C37.9886 40.6964 31.7089 53.7955 29.9336 57.2492C30.1005 57.2463 30.267 57.2422 30.4331 57.2367C32.8836 54.9671 39.3348 48.7162 40.6761 44.6272C40.8455 44.1108 40.7073 43.5435 40.3227 43.1595C40.1078 42.9448 39.8598 42.6972 39.6308 42.4687Z" fill="#365E7D"/>
<path d="M29.589 40.3486L26.5859 42.8566L28.116 44.7903H30.8548L32.385 42.7425L29.589 40.3486Z" fill="#DD636E"/>
</svg>
