<svg width="24" height="24" viewBox="0 0 24 24" fill="none" xmlns="http://www.w3.org/2000/svg">
<path d="M12.0253 21.1142C17.2784 21.1142 21.5369 16.8557 21.5369 11.6026C21.5369 6.34944 17.2784 2.09094 12.0253 2.09094C6.77217 2.09094 2.51367 6.34944 2.51367 11.6026C2.51367 16.8557 6.77217 21.1142 12.0253 21.1142Z" stroke="#1280FF" stroke-width="1.90232" stroke-linecap="round" stroke-linejoin="round"/>
<path d="M12.0253 15.4072C14.1266 15.4072 15.83 13.7038 15.83 11.6026C15.83 9.50131 14.1266 7.79791 12.0253 7.79791C9.9241 7.79791 8.2207 9.50131 8.2207 11.6026C8.2207 13.7038 9.9241 15.4072 12.0253 15.4072Z" stroke="#1280FF" stroke-width="1.90232" stroke-linecap="round" stroke-linejoin="round"/>
<path d="M20.7475 7.79791H12.0254" stroke="#1280FF" stroke-width="1.90232" stroke-linecap="round" stroke-linejoin="round"/>
<path d="M4.36719 5.95264L8.73302 13.5049" stroke="#1280FF" stroke-width="1.90232" stroke-linecap="round" stroke-linejoin="round"/>
<path d="M10.9609 21.0571L15.3173 13.5049" stroke="#1280FF" stroke-width="1.90232" stroke-linecap="round" stroke-linejoin="round"/>
</svg>
