<svg width="14" height="15" viewBox="0 0 14 15" fill="none" xmlns="http://www.w3.org/2000/svg">
<g clip-path="url(#clip0_6273_13781)">
<path d="M6.41602 2.42896H2.33268C2.02326 2.42896 1.72652 2.55187 1.50772 2.77066C1.28893 2.98946 1.16602 3.2862 1.16602 3.59562V11.7623C1.16602 12.0717 1.28893 12.3685 1.50772 12.5872C1.72652 12.806 2.02326 12.929 2.33268 12.929H10.4993C10.8088 12.929 11.1055 12.806 11.3243 12.5872C11.5431 12.3685 11.666 12.0717 11.666 11.7623V7.67896" stroke="white" stroke-linecap="round" stroke-linejoin="round"/>
<path d="M10.791 1.55409C11.0231 1.32202 11.3378 1.19165 11.666 1.19165C11.9942 1.19165 12.309 1.32202 12.541 1.55409C12.7731 1.78615 12.9035 2.1009 12.9035 2.42909C12.9035 2.75728 12.7731 3.07202 12.541 3.30409L6.99935 8.84575L4.66602 9.42909L5.24935 7.09575L10.791 1.55409Z" stroke="white" stroke-linecap="round" stroke-linejoin="round"/>
</g>
<defs>
<clipPath id="clip0_6273_13781">
<rect width="14" height="14" fill="white" transform="translate(0 0.0957031)"/>
</clipPath>
</defs>
</svg>
