<svg width="242" height="64" viewBox="0 0 242 64" fill="none" xmlns="http://www.w3.org/2000/svg">
<g clip-path="url(#clip0_5901_2101)">
<path fill-rule="evenodd" clip-rule="evenodd" d="M31.4059 2.15257C15.0995 2.15257 1.88061 15.6888 1.88061 32.3865C1.88061 49.0843 15.0995 62.6205 31.4059 62.6205C47.7122 62.6205 60.9311 49.0843 60.9311 32.3865C60.9311 15.6888 47.7122 2.15257 31.4059 2.15257ZM0.650391 32.3865C0.650391 14.993 14.4201 0.892822 31.4059 0.892822C48.3917 0.892822 62.1614 14.993 62.1614 32.3865C62.1614 49.78 48.3917 63.8802 31.4059 63.8802C14.4201 63.8802 0.650391 49.78 0.650391 32.3865Z" fill="white"/>
<path fill-rule="evenodd" clip-rule="evenodd" d="M31.4049 7.19163C17.8163 7.19163 6.80053 18.4718 6.80053 32.3866C6.80053 46.3014 17.8163 57.5816 31.4049 57.5816C44.9935 57.5816 56.0093 46.3014 56.0093 32.3866C56.0093 18.4718 44.9935 7.19163 31.4049 7.19163ZM5.57031 32.3866C5.57031 17.7761 17.1369 5.93188 31.4049 5.93188C45.673 5.93188 57.2395 17.7761 57.2395 32.3866C57.2395 46.9971 45.673 58.8413 31.4049 58.8413C17.1369 58.8413 5.57031 46.9971 5.57031 32.3866Z" fill="white"/>
<path d="M85.8435 14.1705L82.5958 15.3043L83.1494 14.4729V35.1453L82.5958 34.3517L85.8435 35.3343V38.0554H75.1406V35.3343L78.3515 34.3895L77.8717 35.1453V14.4729L78.536 15.3043L75.1406 14.3595V11.6384L85.8435 11.4495V14.1705ZM88.2548 38.0554V35.3343L91.3549 34.4273L90.7275 35.1831V20.7842L91.3549 21.6534L88.2548 20.7086V17.9876L94.7503 17.6852L95.4146 21.3133L94.7503 21.0488C95.9313 19.8142 97.1862 18.9072 98.5148 18.3277C99.8434 17.723 101.111 17.4207 102.316 17.4207C103.989 17.4207 105.379 17.9624 106.487 19.0458C107.594 20.1039 108.135 21.7164 108.111 23.8832V35.1831L107.631 34.4273L110.583 35.3343V38.0554H100.729V35.3343L103.534 34.5029L102.944 35.2965V25.017C102.944 23.7824 102.673 22.8754 102.132 22.2959C101.615 21.7164 100.926 21.4267 100.065 21.4267C99.4006 21.4267 98.6747 21.6156 97.8874 21.9936C97.1 22.3715 96.325 22.9384 95.5623 23.6942L95.8944 22.9006V35.2965L95.4146 34.5029L98.1088 35.3343V38.0554H88.2548ZM112.01 38.0554V35.3343L115.11 34.4273L114.483 35.1831V20.7842L115.11 21.6534L112.01 20.7086V17.9876L118.506 17.6852L119.17 21.3133L118.506 21.0488C119.687 19.8142 120.942 18.9072 122.27 18.3277C123.599 17.723 124.866 17.4207 126.072 17.4207C127.745 17.4207 129.135 17.9624 130.242 19.0458C131.349 20.1039 131.891 21.7164 131.866 23.8832V35.1831L131.386 34.4273L134.339 35.3343V38.0554H124.485V35.3343L127.29 34.5029L126.699 35.2965V25.017C126.699 23.7824 126.428 22.8754 125.887 22.2959C125.371 21.7164 124.682 21.4267 123.82 21.4267C123.156 21.4267 122.43 21.6156 121.643 21.9936C120.856 22.3715 120.081 22.9384 119.318 23.6942L119.65 22.9006V35.2965L119.17 34.5029L121.864 35.3343V38.0554H112.01ZM145.62 17.4207C148.523 17.4207 150.787 18.3025 152.411 20.0661C154.035 21.8298 154.847 24.3367 154.847 27.5868C154.847 29.8544 154.453 31.807 153.666 33.4447C152.878 35.0572 151.746 36.3043 150.27 37.1861C148.794 38.068 147.022 38.5089 144.956 38.5089C142.052 38.5089 139.801 37.627 138.202 35.8634C136.627 34.0997 135.84 31.5928 135.84 28.3427C135.84 26.0751 136.221 24.1351 136.984 22.5227C137.771 20.885 138.891 19.6252 140.342 18.7434C141.794 17.8616 143.553 17.4207 145.62 17.4207ZM145.362 21.1999C143.959 21.1999 142.913 21.7668 142.225 22.9006C141.536 24.0092 141.191 25.735 141.191 28.0781C141.191 30.4213 141.523 32.1219 142.188 33.1801C142.852 34.2131 143.861 34.7296 145.214 34.7296C146.198 34.7296 146.998 34.4777 147.613 33.9738C148.228 33.4699 148.695 32.7014 149.015 31.6684C149.335 30.6354 149.495 29.3631 149.495 27.8514C149.495 25.5587 149.151 23.8832 148.462 22.825C147.773 21.7416 146.739 21.1999 145.362 21.1999ZM166.066 38.5089C164.368 38.5089 162.831 38.1057 161.453 37.2995C160.1 36.4681 159.029 35.2839 158.242 33.747C157.455 32.2101 157.061 30.3457 157.061 28.1537C157.061 26.1633 157.344 24.4879 157.91 23.1273C158.476 21.7668 159.238 20.6708 160.198 19.8394C161.158 18.9828 162.228 18.3655 163.409 17.9876C164.59 17.6096 165.808 17.4207 167.063 17.4207C168.244 17.4207 169.437 17.5718 170.643 17.8742C171.848 18.1765 172.832 18.5167 173.595 18.8946L173.447 24.4501H170.126L169.572 21.3511L169.978 21.6534C169.609 21.5023 169.154 21.3889 168.613 21.3133C168.096 21.2377 167.616 21.1999 167.173 21.1999C166.115 21.1999 165.23 21.4771 164.516 22.0314C163.827 22.5605 163.31 23.3289 162.966 24.3367C162.622 25.3193 162.449 26.4909 162.449 27.8514C162.449 29.3127 162.646 30.5473 163.04 31.5551C163.433 32.5629 163.987 33.3313 164.701 33.8604C165.439 34.3643 166.288 34.6162 167.247 34.6162C168.01 34.6162 168.846 34.4525 169.757 34.1249C170.667 33.7974 171.614 33.3061 172.599 32.651L174.333 35.3343C172.955 36.4177 171.578 37.2239 170.2 37.753C168.822 38.2569 167.444 38.5089 166.066 38.5089ZM182.957 34.9564L182.588 34.5029L185.43 35.3343V38.0554H175.354V35.3343L178.196 34.5029L177.79 34.9564V12.0919L178.122 12.4699L175.354 11.6762V8.95517L182.957 8.65283V34.9564ZM203.576 35.3721L202.874 34.3139L206.048 35.3343V38.0176L199.59 38.3577L198.888 34.7296L199.257 34.843C198.273 36.0775 197.203 36.9972 196.047 37.6018C194.89 38.2065 193.697 38.5089 192.467 38.5089C190.892 38.5089 189.588 37.9924 188.555 36.9594C187.521 35.9264 187.004 34.4399 187.004 32.4999C187.004 31.0638 187.3 29.93 187.89 29.0985C188.505 28.2419 189.391 27.6246 190.548 27.2467C191.704 26.8688 193.106 26.6798 194.755 26.6798H198.778L198.409 27.0955V24.6012C198.409 23.4171 198.126 22.573 197.56 22.0691C197.018 21.5652 196.219 21.3133 195.161 21.3133C194.644 21.3133 194.091 21.3637 193.5 21.4645C192.91 21.5653 192.27 21.7164 191.581 21.918L192.098 21.3511L191.618 24.4123H188.407L188.112 18.8946C189.785 18.3907 191.31 18.0254 192.688 17.7986C194.091 17.5467 195.37 17.4207 196.526 17.4207C198.815 17.4207 200.562 17.9246 201.767 18.9324C202.973 19.9402 203.576 21.5023 203.576 23.6186V35.3721ZM192.208 31.9708C192.208 32.903 192.417 33.5958 192.836 34.0494C193.279 34.4777 193.832 34.6918 194.497 34.6918C195.112 34.6918 195.788 34.5029 196.526 34.1249C197.265 33.7218 197.966 33.1801 198.63 32.4999L198.409 33.4069V29.0985L198.778 29.4765H195.604C194.324 29.4765 193.439 29.678 192.946 30.0811C192.454 30.4843 192.208 31.1141 192.208 31.9708ZM213.233 22.9762C213.233 23.5557 213.479 24.0218 213.971 24.3745C214.463 24.7272 215.09 25.0296 215.853 25.2815C216.64 25.5335 217.465 25.798 218.326 26.0751C219.212 26.3523 220.036 26.7176 220.799 27.1711C221.586 27.5994 222.226 28.1789 222.718 28.9096C223.21 29.6402 223.456 30.585 223.456 31.744C223.456 33.2305 223.062 34.4777 222.275 35.4855C221.488 36.4933 220.417 37.2491 219.064 37.753C217.711 38.2569 216.185 38.5089 214.488 38.5089C213.503 38.5089 212.458 38.4207 211.351 38.2443C210.268 38.068 209.148 37.8286 207.992 37.5263L208.213 31.8196H211.461L211.867 35.1453L211.424 34.5029C211.916 34.654 212.458 34.78 213.048 34.8808C213.639 34.9564 214.155 34.9942 214.598 34.9942C215.238 34.9942 215.829 34.906 216.37 34.7296C216.936 34.5533 217.391 34.3013 217.735 33.9738C218.104 33.621 218.289 33.1801 218.289 32.651C218.289 32.0464 218.043 31.5676 217.551 31.2149C217.059 30.8622 216.419 30.5599 215.632 30.3079C214.869 30.056 214.057 29.7914 213.196 29.5143C212.359 29.2371 211.547 28.8718 210.76 28.4183C209.997 27.9648 209.37 27.3601 208.878 26.6042C208.386 25.8484 208.14 24.8658 208.14 23.6564C208.14 22.1951 208.496 21.011 209.21 20.1039C209.923 19.1717 210.871 18.4915 212.052 18.0631C213.257 17.6348 214.574 17.4207 216.001 17.4207C217.01 17.4207 218.08 17.5215 219.212 17.723C220.343 17.8994 221.5 18.1639 222.681 18.5167L222.496 23.5808H219.212L218.621 20.5952L219.322 21.3889C218.166 21.0614 217.145 20.8976 216.259 20.8976C215.373 20.8976 214.611 21.0865 214.045 21.4645C213.503 21.8172 213.233 22.3211 213.233 22.9762ZM231.428 22.9762C231.428 23.5557 231.674 24.0218 232.166 24.3745C232.658 24.7272 233.285 25.0296 234.048 25.2815C234.835 25.5335 235.66 25.798 236.521 26.0751C237.407 26.3523 238.231 26.7176 238.994 27.1711C239.781 27.5994 240.421 28.1789 240.913 28.9096C241.405 29.6402 241.651 30.585 241.651 31.744C241.651 33.2305 241.257 34.4777 240.47 35.4855C239.683 36.4933 238.612 37.2491 237.259 37.753C235.906 38.2569 234.38 38.5089 232.683 38.5089C231.698 38.5089 230.653 38.4207 229.546 38.2443C228.463 38.068 227.343 37.8286 226.187 37.5263L226.408 31.8196H229.656L230.062 35.1453L229.619 34.5029C230.111 34.654 230.653 34.78 231.243 34.8808C231.834 34.9564 232.35 34.9942 232.793 34.9942C233.433 34.9942 234.023 34.906 234.565 34.7296C235.131 34.5533 235.586 34.3013 235.93 33.9738C236.299 33.621 236.484 33.1801 236.484 32.651C236.484 32.0464 236.238 31.5676 235.746 31.2149C235.254 30.8622 234.614 30.5599 233.827 30.3079C233.064 30.056 232.252 29.7914 231.391 29.5143C230.554 29.2371 229.742 28.8718 228.955 28.4183C228.192 27.9648 227.565 27.3601 227.073 26.6042C226.581 25.8484 226.335 24.8658 226.335 23.6564C226.335 22.1951 226.691 21.011 227.405 20.1039C228.118 19.1717 229.066 18.4915 230.247 18.0631C231.452 17.6348 232.769 17.4207 234.196 17.4207C235.204 17.4207 236.275 17.5215 237.407 17.723C238.538 17.8994 239.695 18.1639 240.876 18.5167L240.691 23.5808H237.407L236.816 20.5952L237.517 21.3889C236.361 21.0614 235.34 20.8976 234.454 20.8976C233.568 20.8976 232.806 21.0865 232.24 21.4645C231.698 21.8172 231.428 22.3211 231.428 22.9762Z" fill="white"/>
<mask id="mask0_5901_2101" style="mask-type:luminance" maskUnits="userSpaceOnUse" x="22" y="28" width="26" height="26">
<path d="M40.675 28.3534L22.0391 36.3674L29.1126 53.6155L47.7485 45.6015L40.675 28.3534Z" fill="white"/>
</mask>
<g mask="url(#mask0_5901_2101)">
<path d="M29.4219 44.1146C29.3604 45.0972 29.3604 46.1175 29.4096 47.1379C26.5185 43.4469 24.9316 39.2645 24.5625 35.2711C27.9333 37.652 31.4886 38.5969 34.5642 38.4835C33.8261 39.0504 33.0387 39.5669 32.2145 40.0456C35.942 43.6358 41.4411 45.8908 47.6414 45.2987C41.9455 47.5033 35.3146 47.1757 29.4342 44.102L29.4219 44.1146Z" fill="#2D87EF"/>
<path d="M24.55 35.2711L22.6309 36.9592C22.6309 36.9592 22.8523 38.2567 23.6396 40.2723C24.2055 41.6958 24.4393 42.2123 25.4112 44.1271C26.7644 46.7726 28.2776 48.4607 28.2776 48.4607L29.3233 47.2135C29.3233 47.2135 27.4533 44.9586 26.4199 42.7288C25.3866 40.5117 24.4762 37.4631 24.5623 35.2711H24.55Z" fill="#2D87EF"/>
<path d="M29.5453 44.3917L29.4961 46.5207C29.4961 46.5207 34.0356 48.7756 39.8791 47.8434C45.8211 46.8986 47.4573 45.6263 47.4573 45.6263C47.4573 45.6263 44.8369 46.5459 42.1181 46.8986C40.076 47.1632 37.8985 46.9112 36.656 46.7726C33.7034 46.4325 29.5576 44.4043 29.5576 44.4043L29.5453 44.3917Z" fill="#2D87EF"/>
<path d="M32.4361 40.0833L33.1004 40.7006L34.5029 38.7102L32.4238 40.0959L32.4361 40.0833Z" fill="#2D87EF"/>
<path d="M47.6297 45.324C41.4294 45.9161 35.9303 43.6737 32.2027 40.0709C33.027 39.5922 33.8143 39.0631 34.5525 38.5088C31.5015 38.6221 27.9216 37.6773 24.5508 35.2838C24.5508 35.2838 31.9936 49.6323 47.6297 45.324Z" fill="white" fill-opacity="0.2"/>
</g>
<mask id="mask1_5901_2101" style="mask-type:luminance" maskUnits="userSpaceOnUse" x="11" y="19" width="22" height="24">
<path d="M14.4153 19.8004L11.875 40.334L29.9989 42.6851L32.5392 22.1516L14.4153 19.8004Z" fill="white"/>
</mask>
<g mask="url(#mask1_5901_2101)">
<path d="M22.2882 24.8154C21.4885 24.2737 20.6274 23.7572 19.7416 23.2911C24.318 22.573 28.6484 23.2533 32.2038 24.9162C28.5008 26.705 25.9296 29.3883 24.478 32.1849C24.3673 31.2401 24.318 30.2827 24.3303 29.3253C19.4218 30.8244 14.7715 34.5784 12.1758 40.3733C13.16 34.2131 16.7522 28.4939 22.3005 24.828L22.2882 24.8154Z" fill="#2D87EF"/>
<path d="M32.2058 24.9287L31.7383 22.384C31.7383 22.384 30.5327 21.9305 28.429 21.6282C26.9404 21.414 26.3868 21.3762 24.2831 21.2755C21.3675 21.1495 19.1777 21.6534 19.1777 21.6534L19.7067 23.2029C19.7067 23.2029 22.5485 22.6738 24.9475 22.8753C27.3464 23.0769 30.3727 23.7824 32.1812 24.9539L32.2058 24.9287Z" fill="#2D87EF"/>
<path d="M21.9936 24.7902L20.2221 23.6816C20.2221 23.6816 16.0393 26.5791 13.9111 32.2353C11.7336 37.9798 11.9919 40.071 11.9919 40.071C11.9919 40.071 12.5209 37.2869 13.5912 34.7044C14.3909 32.7644 15.6949 30.963 16.433 29.9174C18.2045 27.4735 21.9936 24.8028 21.9936 24.8028V24.7902Z" fill="#2D87EF"/>
<path d="M24.1946 29.5143L23.3457 29.804L24.3299 32.0464L24.1946 29.5143Z" fill="#2D87EF"/>
<path d="M12.1764 40.3607C14.7844 34.5658 19.4224 30.8118 24.3309 29.3127C24.3309 30.2953 24.3678 31.2527 24.4786 32.1723C25.9179 29.4135 28.4891 26.7176 32.2043 24.9162C32.2043 24.9162 16.3468 24.3493 12.1641 40.3607H12.1764Z" fill="white" fill-opacity="0.2"/>
</g>
<mask id="mask2_5901_2101" style="mask-type:luminance" maskUnits="userSpaceOnUse" x="23" y="11" width="28" height="28">
<path d="M34.3511 11.2008L23.3008 26.0978L39.3964 38.6173L50.4467 23.7204L34.3511 11.2008Z" fill="white"/>
</mask>
<g mask="url(#mask2_5901_2101)">
<path d="M42.257 28.1913C43.1181 27.7504 43.9793 27.2465 44.8158 26.6922C43.1427 31.1013 40.3993 34.6034 37.2131 36.9213C37.5452 32.739 36.561 29.1109 34.9248 26.4402C35.7737 26.8182 36.6102 27.2465 37.4222 27.7378C38.6032 22.6358 37.7544 16.6394 34.1621 11.4366C38.8739 15.3923 41.9248 21.4264 42.2447 28.1787L42.257 28.1913Z" fill="#2D87EF"/>
<path d="M37.2129 36.934L39.5995 37.7906C39.5995 37.7906 40.596 36.9466 41.8877 35.2333C42.8104 34.0239 43.1302 33.5578 44.2621 31.7312C45.8244 29.2117 46.501 27.0197 46.501 27.0197L44.9264 26.7174C44.9264 26.7174 43.9545 29.5015 42.589 31.5296C41.2234 33.5578 39.1074 35.8884 37.2129 36.9088V36.934Z" fill="#2D87EF"/>
<path d="M42.4293 27.9393L44.2623 26.919C44.2623 26.919 43.8932 21.7666 40.1903 17.0551C36.4258 12.2555 34.5312 11.4366 34.5312 11.4366C34.5312 11.4366 36.6226 13.3011 38.2711 15.5434C39.5136 17.2315 40.3871 19.2723 40.8915 20.4564C42.0725 23.2405 42.4416 27.9393 42.4416 27.9393H42.4293Z" fill="#2D87EF"/>
<path d="M37.3349 27.5363L37.5194 26.6418L35.1328 26.3899L37.3349 27.5363Z" fill="#2D87EF"/>
<path d="M34.1758 11.4495C37.768 16.6522 38.6292 22.6486 37.4359 27.7506C36.6116 27.2593 35.7751 26.8184 34.9385 26.4531C36.5624 29.1111 37.5466 32.7392 37.2144 36.9342C37.2144 36.9342 45.6291 23.1525 34.1758 11.4495Z" fill="white" fill-opacity="0.2"/>
</g>
<path d="M75.3008 45.5731C75.7658 45.4575 76.2209 45.3996 76.666 45.3996C77.0114 45.3996 77.3236 45.4439 77.6026 45.5323C77.8883 45.6139 78.1308 45.7466 78.3301 45.9303C78.536 46.1071 78.6921 46.3384 78.7984 46.6241C78.9114 46.9098 78.9678 47.2534 78.9678 47.6547C78.9678 48.0629 78.9114 48.4132 78.7984 48.7057C78.6855 48.9914 78.526 49.2261 78.3201 49.4098C78.1142 49.5867 77.8651 49.7159 77.5728 49.7976C77.2871 49.8792 76.9682 49.92 76.6161 49.92H76.1976V52.5424H75.3008V45.5731ZM76.1976 49.1139H76.5563C76.7822 49.1139 76.9848 49.0901 77.1642 49.0425C77.3502 48.988 77.5063 48.903 77.6325 48.7874C77.7588 48.6717 77.8551 48.5221 77.9215 48.3384C77.9879 48.1547 78.0212 47.9268 78.0212 47.6547C78.0212 47.3826 77.9879 47.1547 77.9215 46.9711C77.8551 46.7806 77.7621 46.6309 77.6425 46.5221C77.5296 46.4064 77.3901 46.3248 77.224 46.2772C77.0579 46.2296 76.8752 46.2058 76.6759 46.2058C76.5032 46.2058 76.3438 46.216 76.1976 46.2364V49.1139Z" fill="white"/>
<path d="M80.0598 47.2976C80.2325 47.2228 80.4152 47.1649 80.6079 47.1241C80.8005 47.0765 81.0098 47.0527 81.2357 47.0527C81.7007 47.0527 82.0793 47.2023 82.3716 47.5017C82.6639 47.7942 82.8101 48.2534 82.8101 48.8792V52.4302C82.5709 52.4982 82.3251 52.5526 82.0727 52.5934C81.8269 52.6343 81.5844 52.6547 81.3453 52.6547C81.1061 52.6547 80.8803 52.6241 80.6677 52.5628C80.4617 52.5016 80.279 52.403 80.1196 52.2669C79.9668 52.1309 79.8439 51.9608 79.7509 51.7567C79.6579 51.5458 79.6114 51.2907 79.6114 50.9914C79.6114 50.7125 79.6513 50.471 79.731 50.2669C79.8173 50.0561 79.9336 49.8826 80.0797 49.7465C80.2259 49.6037 80.3986 49.4982 80.5979 49.4302C80.7972 49.3554 81.0131 49.318 81.2456 49.318C81.4649 49.318 81.7073 49.3452 81.9731 49.3996V48.9098C81.9731 48.5153 81.8967 48.2397 81.7439 48.0833C81.5977 47.9268 81.3851 47.8486 81.1061 47.8486C80.9533 47.8486 80.8072 47.8656 80.6677 47.8996C80.5348 47.9268 80.392 47.9744 80.2392 48.0425L80.0598 47.2976ZM80.4684 50.9812C80.4684 51.2941 80.5481 51.5254 80.7075 51.6751C80.867 51.8247 81.0928 51.8996 81.3851 51.8996C81.5645 51.8996 81.7605 51.8758 81.9731 51.8281V50.1241C81.7738 50.0697 81.5778 50.0424 81.3851 50.0424C81.2589 50.0424 81.1393 50.0595 81.0264 50.0935C80.9135 50.1207 80.8138 50.1717 80.7275 50.2465C80.6477 50.3146 80.5846 50.4098 80.5381 50.5322C80.4916 50.6479 80.4684 50.7975 80.4684 50.9812Z" fill="white"/>
<path d="M85.8852 49.6955C86.1443 49.7908 86.3602 49.9642 86.5329 50.2159C86.7056 50.4676 86.792 50.7499 86.792 51.0628C86.792 51.6003 86.6325 52.0084 86.3137 52.2873C86.0014 52.5594 85.5929 52.6955 85.088 52.6955C84.8621 52.6955 84.6396 52.6683 84.4203 52.6138C84.2011 52.5662 84.0018 52.488 83.8225 52.3792L83.962 51.6547C84.1015 51.7295 84.2709 51.7941 84.4702 51.8485C84.6695 51.903 84.8654 51.9302 85.0581 51.9302C85.1777 51.9302 85.2906 51.9166 85.3969 51.8894C85.5032 51.8554 85.5962 51.8077 85.6759 51.7465C85.7556 51.6785 85.8187 51.59 85.8652 51.4812C85.9184 51.3656 85.945 51.2261 85.945 51.0628C85.945 50.8792 85.9117 50.7261 85.8453 50.6037C85.7789 50.4744 85.6892 50.3724 85.5763 50.2975C85.4633 50.2227 85.3305 50.1683 85.1777 50.1343C85.0315 50.1003 84.8754 50.0833 84.7093 50.0833H84.3705V49.3894H84.6495C85.0415 49.3894 85.3305 49.318 85.5165 49.1751C85.7025 49.0323 85.7955 48.8418 85.7955 48.6037C85.7955 48.3452 85.7158 48.1581 85.5563 48.0425C85.4035 47.9268 85.2208 47.869 85.0083 47.869C84.8621 47.869 84.7093 47.8928 84.5499 47.9404C84.3905 47.9881 84.231 48.0595 84.0716 48.1547L83.8922 47.4098C84.0716 47.3146 84.2609 47.2398 84.4602 47.1853C84.6595 47.1241 84.8688 47.0935 85.088 47.0935C85.553 47.0935 85.925 47.2194 86.204 47.4711C86.4897 47.7227 86.6325 48.0595 86.6325 48.4812C86.6325 48.7738 86.5595 49.0255 86.4133 49.2363C86.2738 49.4404 86.0977 49.5935 85.8852 49.6955Z" fill="white"/>
<path d="M88.797 51.7363C88.9896 51.8451 89.1956 51.8996 89.4148 51.8996C89.5809 51.8996 89.727 51.8656 89.8532 51.7975C89.9795 51.7295 90.0858 51.6173 90.1721 51.4608C90.2651 51.3043 90.3349 51.0969 90.3814 50.8384C90.4279 50.5799 90.4511 50.2601 90.4511 49.8792C90.4511 49.1445 90.3581 48.6207 90.1721 48.3078C89.9928 47.9881 89.7038 47.8282 89.3052 47.8282C89.2321 47.8282 89.1524 47.835 89.066 47.8486C88.9797 47.8554 88.89 47.8724 88.797 47.8996V51.7363ZM88.797 54.4302H87.94V47.3282C88.126 47.2466 88.3353 47.1819 88.5678 47.1343C88.8069 47.0799 89.0494 47.0527 89.2952 47.0527C89.6606 47.0527 89.9728 47.1173 90.2319 47.2466C90.4976 47.3758 90.7102 47.5629 90.8697 47.8078C91.0357 48.0459 91.1553 48.3418 91.2284 48.6955C91.3081 49.0425 91.348 49.4404 91.348 49.8894C91.348 50.7941 91.2051 51.4846 90.9195 51.9608C90.6405 52.437 90.1821 52.6751 89.5443 52.6751C89.3915 52.6751 89.2554 52.6581 89.1358 52.6241C89.0162 52.5968 88.9033 52.556 88.797 52.5016V54.4302Z" fill="white"/>
<path d="M92.6812 47.2976C92.8539 47.2228 93.0366 47.1649 93.2293 47.1241C93.4219 47.0765 93.6312 47.0527 93.8571 47.0527C94.3221 47.0527 94.7008 47.2023 94.9931 47.5017C95.2854 47.7942 95.4315 48.2534 95.4315 48.8792V52.4302C95.1923 52.4982 94.9465 52.5526 94.6941 52.5934C94.4483 52.6343 94.2058 52.6547 93.9667 52.6547C93.7275 52.6547 93.5017 52.6241 93.2891 52.5628C93.0831 52.5016 92.9004 52.403 92.741 52.2669C92.5882 52.1309 92.4653 51.9608 92.3723 51.7567C92.2793 51.5458 92.2328 51.2907 92.2328 50.9914C92.2328 50.7125 92.2727 50.471 92.3524 50.2669C92.4387 50.0561 92.555 49.8826 92.7012 49.7465C92.8473 49.6037 93.02 49.4982 93.2193 49.4302C93.4186 49.3554 93.6345 49.318 93.867 49.318C94.0863 49.318 94.3287 49.3452 94.5945 49.3996V48.9098C94.5945 48.5153 94.5181 48.2397 94.3653 48.0833C94.2191 47.9268 94.0065 47.8486 93.7275 47.8486C93.5747 47.8486 93.4286 47.8656 93.2891 47.8996C93.1562 47.9268 93.0134 47.9744 92.8606 48.0425L92.6812 47.2976ZM93.0898 50.9812C93.0898 51.2941 93.1695 51.5254 93.3289 51.6751C93.4884 51.8247 93.7142 51.8996 94.0065 51.8996C94.1859 51.8996 94.3819 51.8758 94.5945 51.8281V50.1241C94.3952 50.0697 94.1992 50.0424 94.0065 50.0424C93.8803 50.0424 93.7607 50.0595 93.6478 50.0935C93.5349 50.1207 93.4352 50.1717 93.3489 50.2465C93.2691 50.3146 93.206 50.4098 93.1595 50.5322C93.113 50.6479 93.0898 50.7975 93.0898 50.9812Z" fill="white"/>
<path d="M97.9485 46.6649C97.8888 46.8146 97.8389 46.9847 97.7991 47.1751C97.7659 47.3588 97.736 47.5697 97.7094 47.8078C97.8555 47.7193 98.015 47.6547 98.1877 47.6139C98.3604 47.5731 98.5331 47.5527 98.7059 47.5527C99.224 47.5527 99.6326 47.7534 99.9315 48.1547C100.23 48.5493 100.38 49.1887 100.38 50.0731C100.38 50.8894 100.234 51.5288 99.9415 51.9914C99.6558 52.4472 99.2141 52.6751 98.6162 52.6751C98.2641 52.6751 97.9718 52.5934 97.7393 52.4302C97.5068 52.2669 97.3208 52.039 97.1813 51.7465C97.0417 51.454 96.9421 51.1037 96.8823 50.6955C96.8225 50.2805 96.7926 49.8282 96.7926 49.3384C96.7926 49.1003 96.7959 48.8554 96.8026 48.6037C96.8092 48.352 96.8225 48.1037 96.8425 47.8588C96.869 47.6071 96.9056 47.3622 96.9521 47.1241C96.9986 46.886 97.0617 46.6581 97.1414 46.4405C97.2942 46.0391 97.4868 45.7296 97.7194 45.5119C97.9519 45.2874 98.1977 45.1207 98.4567 45.0119C98.7158 44.8963 98.9749 44.818 99.234 44.7772C99.4931 44.7296 99.7322 44.6786 99.9515 44.6241L100.091 45.4099C99.8651 45.4643 99.6459 45.5119 99.4333 45.5527C99.2274 45.5867 99.0314 45.6411 98.8454 45.716C98.6594 45.7908 98.49 45.8996 98.3372 46.0425C98.1844 46.1854 98.0548 46.3928 97.9485 46.6649ZM98.5863 48.318C98.3936 48.318 98.2242 48.3486 98.0781 48.4098C97.9319 48.471 97.8024 48.5459 97.6895 48.6343C97.6828 48.7499 97.6795 48.869 97.6795 48.9914C97.6795 49.1139 97.6795 49.2397 97.6795 49.369C97.6795 50.1853 97.7459 50.8145 97.8788 51.2567C98.0183 51.6921 98.2774 51.9098 98.656 51.9098C98.9284 51.9098 99.1344 51.7737 99.2739 51.5016C99.4134 51.2227 99.4831 50.7465 99.4831 50.0731C99.4831 49.5084 99.4134 49.0765 99.2739 48.7772C99.1344 48.471 98.9052 48.318 98.5863 48.318Z" fill="white"/>
<path d="M104.98 49.869C104.98 50.2907 104.944 50.6751 104.871 51.022C104.798 51.3622 104.685 51.6547 104.532 51.8996C104.386 52.1445 104.197 52.3349 103.964 52.471C103.738 52.607 103.469 52.6751 103.157 52.6751C102.845 52.6751 102.572 52.607 102.34 52.471C102.107 52.3349 101.915 52.1445 101.762 51.8996C101.616 51.6547 101.506 51.3622 101.433 51.022C101.36 50.6751 101.323 50.2907 101.323 49.869C101.323 49.454 101.36 49.0731 101.433 48.7261C101.506 48.3792 101.616 48.0833 101.762 47.8384C101.915 47.5867 102.107 47.3928 102.34 47.2568C102.572 47.1207 102.845 47.0527 103.157 47.0527C103.469 47.0527 103.738 47.1207 103.964 47.2568C104.197 47.3928 104.386 47.5867 104.532 47.8384C104.685 48.0833 104.798 48.3792 104.871 48.7261C104.944 49.0731 104.98 49.454 104.98 49.869ZM104.084 49.869C104.084 49.5697 104.067 49.2976 104.034 49.0527C104.001 48.801 103.947 48.5867 103.874 48.4098C103.801 48.2261 103.705 48.0867 103.585 47.9915C103.466 47.8894 103.323 47.8384 103.157 47.8384C102.984 47.8384 102.838 47.8894 102.718 47.9915C102.606 48.0867 102.509 48.2261 102.43 48.4098C102.356 48.5867 102.303 48.801 102.27 49.0527C102.237 49.2976 102.22 49.5697 102.22 49.869C102.22 50.1683 102.237 50.4438 102.27 50.6955C102.303 50.9404 102.356 51.1513 102.43 51.3281C102.509 51.505 102.606 51.6445 102.718 51.7465C102.838 51.8417 102.984 51.8894 103.157 51.8894C103.323 51.8894 103.466 51.8417 103.585 51.7465C103.705 51.6445 103.801 51.505 103.874 51.3281C103.947 51.1513 104.001 50.9404 104.034 50.6955C104.067 50.4438 104.084 50.1683 104.084 49.869Z" fill="white"/>
<path d="M105.451 47.1853H108.919V47.9404H107.614V52.5424H106.757V47.9404H105.451V47.1853Z" fill="white"/>
<path d="M113.074 47.1853C112.795 47.6751 112.526 48.1241 112.267 48.5323C112.014 48.9336 111.762 49.3112 111.51 49.6649C111.669 49.8554 111.832 50.0697 111.998 50.3078C112.164 50.5458 112.323 50.7941 112.476 51.0526C112.629 51.3043 112.772 51.5594 112.905 51.8179C113.038 52.0696 113.15 52.3111 113.243 52.5424H112.307C112.207 52.3179 112.091 52.0832 111.958 51.8383C111.825 51.5935 111.686 51.3554 111.539 51.1241C111.393 50.886 111.247 50.6615 111.101 50.4506C110.955 50.2397 110.819 50.0629 110.692 49.92V52.5424H109.836V47.1853H110.692V49.4914C110.812 49.3282 110.938 49.1445 111.071 48.9404C111.211 48.7363 111.347 48.5323 111.48 48.3282C111.613 48.1173 111.739 47.9132 111.858 47.7159C111.978 47.5187 112.078 47.3418 112.157 47.1853H113.074Z" fill="white"/>
<path d="M114.119 47.2976C114.292 47.2228 114.475 47.1649 114.667 47.1241C114.86 47.0765 115.069 47.0527 115.295 47.0527C115.76 47.0527 116.139 47.2023 116.431 47.5017C116.723 47.7942 116.869 48.2534 116.869 48.8792V52.4302C116.63 52.4982 116.384 52.5526 116.132 52.5934C115.886 52.6343 115.644 52.6547 115.405 52.6547C115.165 52.6547 114.94 52.6241 114.727 52.5628C114.521 52.5016 114.338 52.403 114.179 52.2669C114.026 52.1309 113.903 51.9608 113.81 51.7567C113.717 51.5458 113.671 51.2907 113.671 50.9914C113.671 50.7125 113.711 50.471 113.79 50.2669C113.877 50.0561 113.993 49.8826 114.139 49.7465C114.285 49.6037 114.458 49.4982 114.657 49.4302C114.857 49.3554 115.072 49.318 115.305 49.318C115.524 49.318 115.767 49.3452 116.032 49.3996V48.9098C116.032 48.5153 115.956 48.2397 115.803 48.0833C115.657 47.9268 115.444 47.8486 115.165 47.8486C115.013 47.8486 114.866 47.8656 114.727 47.8996C114.594 47.9268 114.451 47.9744 114.298 48.0425L114.119 47.2976ZM114.528 50.9812C114.528 51.2941 114.607 51.5254 114.767 51.6751C114.926 51.8247 115.152 51.8996 115.444 51.8996C115.624 51.8996 115.82 51.8758 116.032 51.8281V50.1241C115.833 50.0697 115.637 50.0424 115.444 50.0424C115.318 50.0424 115.199 50.0595 115.086 50.0935C114.973 50.1207 114.873 50.1717 114.787 50.2465C114.707 50.3146 114.644 50.4098 114.597 50.5322C114.551 50.6479 114.528 50.7975 114.528 50.9812Z" fill="white"/>
<path d="M119.227 51.3792C119.234 51.4336 119.237 51.488 119.237 51.5424C119.237 51.59 119.237 51.6411 119.237 51.6955C119.237 52.1309 119.177 52.5492 119.058 52.9506C118.938 53.3519 118.775 53.7397 118.569 54.1138L117.961 53.9302C118.128 53.5832 118.237 53.2295 118.29 52.8689C118.343 52.5152 118.37 52.1819 118.37 51.869C118.37 51.7805 118.367 51.6955 118.36 51.6139C118.36 51.5322 118.357 51.454 118.35 51.3792H119.227Z" fill="white"/>
<path d="M124.217 52.6751C123.858 52.6751 123.559 52.6036 123.32 52.4608C123.081 52.3179 122.885 52.1241 122.732 51.8792C122.586 51.6275 122.48 51.3315 122.413 50.9914C122.353 50.6513 122.323 50.2805 122.323 49.8792C122.323 48.9948 122.48 48.3044 122.792 47.8078C123.111 47.3044 123.589 47.0527 124.227 47.0527C124.419 47.0527 124.592 47.0765 124.745 47.1241C124.898 47.1717 125.04 47.233 125.173 47.3078L124.954 48.0323C124.748 47.8962 124.519 47.8282 124.267 47.8282C123.908 47.8282 123.642 47.9949 123.469 48.3282C123.303 48.6615 123.22 49.1785 123.22 49.8792C123.22 50.1717 123.237 50.4438 123.27 50.6955C123.303 50.9404 123.36 51.1513 123.439 51.3281C123.526 51.505 123.635 51.6445 123.768 51.7465C123.908 51.8485 124.084 51.8996 124.296 51.8996C124.443 51.8996 124.572 51.8826 124.685 51.8485C124.805 51.8077 124.918 51.7567 125.024 51.6955L125.213 52.3792C125.107 52.454 124.964 52.522 124.785 52.5832C124.612 52.6445 124.423 52.6751 124.217 52.6751Z" fill="white"/>
<path d="M129.445 49.869C129.445 50.2907 129.408 50.6751 129.335 51.022C129.262 51.3622 129.149 51.6547 128.996 51.8996C128.85 52.1445 128.661 52.3349 128.428 52.471C128.203 52.607 127.933 52.6751 127.621 52.6751C127.309 52.6751 127.037 52.607 126.804 52.471C126.572 52.3349 126.379 52.1445 126.226 51.8996C126.08 51.6547 125.97 51.3622 125.897 51.022C125.824 50.6751 125.788 50.2907 125.788 49.869C125.788 49.454 125.824 49.0731 125.897 48.7261C125.97 48.3792 126.08 48.0833 126.226 47.8384C126.379 47.5867 126.572 47.3928 126.804 47.2568C127.037 47.1207 127.309 47.0527 127.621 47.0527C127.933 47.0527 128.203 47.1207 128.428 47.2568C128.661 47.3928 128.85 47.5867 128.996 47.8384C129.149 48.0833 129.262 48.3792 129.335 48.7261C129.408 49.0731 129.445 49.454 129.445 49.869ZM128.548 49.869C128.548 49.5697 128.531 49.2976 128.498 49.0527C128.465 48.801 128.412 48.5867 128.339 48.4098C128.266 48.2261 128.169 48.0867 128.05 47.9915C127.93 47.8894 127.787 47.8384 127.621 47.8384C127.449 47.8384 127.302 47.8894 127.183 47.9915C127.07 48.0867 126.974 48.2261 126.894 48.4098C126.821 48.5867 126.768 48.801 126.734 49.0527C126.701 49.2976 126.685 49.5697 126.685 49.869C126.685 50.1683 126.701 50.4438 126.734 50.6955C126.768 50.9404 126.821 51.1513 126.894 51.3281C126.974 51.505 127.07 51.6445 127.183 51.7465C127.302 51.8417 127.449 51.8894 127.621 51.8894C127.787 51.8894 127.93 51.8417 128.05 51.7465C128.169 51.6445 128.266 51.505 128.339 51.3281C128.412 51.1513 128.465 50.9404 128.498 50.6955C128.531 50.4438 128.548 50.1683 128.548 49.869Z" fill="white"/>
<path d="M134.057 49.869C134.057 50.2907 134.021 50.6751 133.948 51.022C133.875 51.3622 133.762 51.6547 133.609 51.8996C133.463 52.1445 133.273 52.3349 133.041 52.471C132.815 52.607 132.546 52.6751 132.234 52.6751C131.922 52.6751 131.649 52.607 131.417 52.471C131.184 52.3349 130.992 52.1445 130.839 51.8996C130.693 51.6547 130.583 51.3622 130.51 51.022C130.437 50.6751 130.4 50.2907 130.4 49.869C130.4 49.454 130.437 49.0731 130.51 48.7261C130.583 48.3792 130.693 48.0833 130.839 47.8384C130.992 47.5867 131.184 47.3928 131.417 47.2568C131.649 47.1207 131.922 47.0527 132.234 47.0527C132.546 47.0527 132.815 47.1207 133.041 47.2568C133.273 47.3928 133.463 47.5867 133.609 47.8384C133.762 48.0833 133.875 48.3792 133.948 48.7261C134.021 49.0731 134.057 49.454 134.057 49.869ZM133.161 49.869C133.161 49.5697 133.144 49.2976 133.111 49.0527C133.078 48.801 133.024 48.5867 132.951 48.4098C132.878 48.2261 132.782 48.0867 132.662 47.9915C132.543 47.8894 132.4 47.8384 132.234 47.8384C132.061 47.8384 131.915 47.8894 131.795 47.9915C131.682 48.0867 131.586 48.2261 131.506 48.4098C131.433 48.5867 131.38 48.801 131.347 49.0527C131.314 49.2976 131.297 49.5697 131.297 49.869C131.297 50.1683 131.314 50.4438 131.347 50.6955C131.38 50.9404 131.433 51.1513 131.506 51.3281C131.586 51.505 131.682 51.6445 131.795 51.7465C131.915 51.8417 132.061 51.8894 132.234 51.8894C132.4 51.8894 132.543 51.8417 132.662 51.7465C132.782 51.6445 132.878 51.505 132.951 51.3281C133.024 51.1513 133.078 50.9404 133.111 50.6955C133.144 50.4438 133.161 50.1683 133.161 49.869Z" fill="white"/>
<path d="M136.338 46.6649C136.278 46.8146 136.229 46.9847 136.189 47.1751C136.156 47.3588 136.126 47.5697 136.099 47.8078C136.245 47.7193 136.405 47.6547 136.577 47.6139C136.75 47.5731 136.923 47.5527 137.096 47.5527C137.614 47.5527 138.022 47.7534 138.321 48.1547C138.62 48.5493 138.77 49.1887 138.77 50.0731C138.77 50.8894 138.623 51.5288 138.331 51.9914C138.046 52.4472 137.604 52.6751 137.006 52.6751C136.654 52.6751 136.361 52.5934 136.129 52.4302C135.896 52.2669 135.71 52.039 135.571 51.7465C135.431 51.454 135.332 51.1037 135.272 50.6955C135.212 50.2805 135.182 49.8282 135.182 49.3384C135.182 49.1003 135.186 48.8554 135.192 48.6037C135.199 48.352 135.212 48.1037 135.232 47.8588C135.259 47.6071 135.295 47.3622 135.342 47.1241C135.388 46.886 135.451 46.6581 135.531 46.4405C135.684 46.0391 135.877 45.7296 136.109 45.5119C136.342 45.2874 136.587 45.1207 136.846 45.0119C137.106 44.8963 137.365 44.818 137.624 44.7772C137.883 44.7296 138.122 44.6786 138.341 44.6241L138.481 45.4099C138.255 45.4643 138.036 45.5119 137.823 45.5527C137.617 45.5867 137.421 45.6411 137.235 45.716C137.049 45.7908 136.88 45.8996 136.727 46.0425C136.574 46.1854 136.445 46.3928 136.338 46.6649ZM136.976 48.318C136.783 48.318 136.614 48.3486 136.468 48.4098C136.322 48.471 136.192 48.5459 136.079 48.6343C136.073 48.7499 136.069 48.869 136.069 48.9914C136.069 49.1139 136.069 49.2397 136.069 49.369C136.069 50.1853 136.136 50.8145 136.268 51.2567C136.408 51.6921 136.667 51.9098 137.046 51.9098C137.318 51.9098 137.524 51.7737 137.664 51.5016C137.803 51.2227 137.873 50.7465 137.873 50.0731C137.873 49.5084 137.803 49.0765 137.664 48.7772C137.524 48.471 137.295 48.318 136.976 48.318Z" fill="white"/>
<path d="M140.012 47.1853H140.869V51.7873H142.234V47.1853H143.091V51.7873H144.456V47.1853H145.313V51.8281H145.951V54.022H145.114V52.5424H140.012V47.1853Z" fill="white"/>
<path d="M147.412 50.1241C147.418 50.3826 147.442 50.6207 147.482 50.8384C147.521 51.0492 147.585 51.2363 147.671 51.3996C147.764 51.556 147.883 51.6785 148.03 51.7669C148.182 51.8554 148.375 51.8996 148.608 51.8996C148.8 51.8996 148.976 51.8724 149.136 51.8179C149.302 51.7567 149.421 51.7057 149.494 51.6649L149.654 52.369C149.568 52.4302 149.421 52.4948 149.215 52.5628C149.016 52.6377 148.777 52.6751 148.498 52.6751C148.133 52.6751 147.824 52.607 147.571 52.471C147.325 52.3349 147.123 52.1445 146.963 51.8996C146.811 51.6547 146.701 51.3622 146.635 51.022C146.568 50.6819 146.535 50.3078 146.535 49.8996C146.535 48.9132 146.694 48.1921 147.013 47.7364C147.332 47.2806 147.754 47.0527 148.279 47.0527C148.87 47.0527 149.289 47.2806 149.534 47.7364C149.78 48.1921 149.903 48.8316 149.903 49.6547C149.903 49.7295 149.903 49.8078 149.903 49.8894C149.903 49.9642 149.9 50.0424 149.893 50.1241H147.412ZM148.279 47.7976C147.993 47.7976 147.784 47.9438 147.651 48.2363C147.525 48.5289 147.448 48.92 147.422 49.4098H149.006C149.006 48.9132 148.956 48.5221 148.857 48.2363C148.757 47.9438 148.564 47.7976 148.279 47.7976Z" fill="white"/>
<path d="M152.758 52.6751C152.4 52.6751 152.101 52.6036 151.862 52.4608C151.622 52.3179 151.426 52.1241 151.274 51.8792C151.128 51.6275 151.021 51.3315 150.955 50.9914C150.895 50.6513 150.865 50.2805 150.865 49.8792C150.865 48.9948 151.021 48.3044 151.333 47.8078C151.652 47.3044 152.131 47.0527 152.768 47.0527C152.961 47.0527 153.134 47.0765 153.287 47.1241C153.439 47.1717 153.582 47.233 153.715 47.3078L153.496 48.0323C153.29 47.8962 153.061 47.8282 152.808 47.8282C152.449 47.8282 152.184 47.9949 152.011 48.3282C151.845 48.6615 151.762 49.1785 151.762 49.8792C151.762 50.1717 151.779 50.4438 151.812 50.6955C151.845 50.9404 151.901 51.1513 151.981 51.3281C152.068 51.505 152.177 51.6445 152.31 51.7465C152.449 51.8485 152.626 51.8996 152.838 51.8996C152.984 51.8996 153.114 51.8826 153.227 51.8485C153.346 51.8077 153.459 51.7567 153.566 51.6955L153.755 52.3792C153.649 52.454 153.506 52.522 153.326 52.5832C153.154 52.6445 152.964 52.6751 152.758 52.6751Z" fill="white"/>
<path d="M154.234 47.1853H157.702V47.9404H156.396V52.5424H155.539V47.9404H154.234V47.1853Z" fill="white"/>
<path d="M159.475 50.1241V51.869C159.694 51.9098 159.914 51.9302 160.133 51.9302C160.412 51.9302 160.648 51.8656 160.84 51.7363C161.033 51.6003 161.129 51.3656 161.129 51.0322C161.129 50.6853 161.036 50.4472 160.85 50.318C160.671 50.1887 160.405 50.1241 160.053 50.1241H159.475ZM160.123 52.6343C159.817 52.6343 159.528 52.6104 159.256 52.5628C158.984 52.522 158.771 52.4744 158.618 52.42V47.267C158.791 47.2125 159.007 47.1649 159.266 47.1241C159.532 47.0765 159.817 47.0527 160.123 47.0527C160.342 47.0527 160.555 47.0799 160.761 47.1343C160.973 47.1887 161.159 47.2738 161.319 47.3894C161.478 47.5051 161.604 47.6615 161.697 47.8588C161.797 48.0493 161.847 48.2806 161.847 48.5527C161.847 48.8384 161.784 49.0799 161.657 49.2772C161.531 49.4676 161.362 49.6241 161.149 49.7465C161.395 49.8418 161.601 50.0016 161.767 50.2261C161.933 50.4506 162.016 50.7159 162.016 51.022C162.016 51.335 161.966 51.5969 161.867 51.8077C161.774 52.0118 161.641 52.1751 161.468 52.2975C161.302 52.42 161.103 52.505 160.87 52.5526C160.638 52.607 160.389 52.6343 160.123 52.6343ZM160.043 47.7772C159.87 47.7772 159.681 47.7976 159.475 47.8384V49.471H160.043C160.342 49.471 160.571 49.4132 160.731 49.2976C160.89 49.1819 160.97 48.9642 160.97 48.6445C160.97 48.4608 160.943 48.3146 160.89 48.2057C160.837 48.0901 160.764 48.0017 160.671 47.9404C160.585 47.8724 160.485 47.8282 160.372 47.8078C160.266 47.7874 160.156 47.7772 160.043 47.7772Z" fill="white"/>
<path d="M166.55 49.869C166.55 50.2907 166.513 50.6751 166.44 51.022C166.367 51.3622 166.254 51.6547 166.102 51.8996C165.955 52.1445 165.766 52.3349 165.534 52.471C165.308 52.607 165.039 52.6751 164.726 52.6751C164.414 52.6751 164.142 52.607 163.909 52.471C163.677 52.3349 163.484 52.1445 163.331 51.8996C163.185 51.6547 163.076 51.3622 163.003 51.022C162.929 50.6751 162.893 50.2907 162.893 49.869C162.893 49.454 162.929 49.0731 163.003 48.7261C163.076 48.3792 163.185 48.0833 163.331 47.8384C163.484 47.5867 163.677 47.3928 163.909 47.2568C164.142 47.1207 164.414 47.0527 164.726 47.0527C165.039 47.0527 165.308 47.1207 165.534 47.2568C165.766 47.3928 165.955 47.5867 166.102 47.8384C166.254 48.0833 166.367 48.3792 166.44 48.7261C166.513 49.0731 166.55 49.454 166.55 49.869ZM165.653 49.869C165.653 49.5697 165.637 49.2976 165.603 49.0527C165.57 48.801 165.517 48.5867 165.444 48.4098C165.371 48.2261 165.274 48.0867 165.155 47.9915C165.035 47.8894 164.892 47.8384 164.726 47.8384C164.554 47.8384 164.408 47.8894 164.288 47.9915C164.175 48.0867 164.079 48.2261 163.999 48.4098C163.926 48.5867 163.873 48.801 163.84 49.0527C163.806 49.2976 163.79 49.5697 163.79 49.869C163.79 50.1683 163.806 50.4438 163.84 50.6955C163.873 50.9404 163.926 51.1513 163.999 51.3281C164.079 51.505 164.175 51.6445 164.288 51.7465C164.408 51.8417 164.554 51.8894 164.726 51.8894C164.892 51.8894 165.035 51.8417 165.155 51.7465C165.274 51.6445 165.371 51.505 165.444 51.3281C165.517 51.1513 165.57 50.9404 165.603 50.6955C165.637 50.4438 165.653 50.1683 165.653 49.869Z" fill="white"/>
<path d="M173.069 47.1547V52.5424H172.262V48.6649C172.122 48.9302 171.966 49.2329 171.793 49.5731C171.621 49.9132 171.448 50.2601 171.275 50.6139C171.109 50.9676 170.95 51.3145 170.797 51.6547C170.651 51.988 170.528 52.2839 170.428 52.5424H169.751V47.1547H170.548V50.6853C170.667 50.4064 170.807 50.1071 170.966 49.7873C171.126 49.4608 171.289 49.1411 171.455 48.8282C171.621 48.5085 171.784 48.2057 171.943 47.92C172.109 47.6275 172.262 47.3724 172.401 47.1547H173.069Z" fill="white"/>
<path d="M179.93 49.869C179.93 50.2907 179.894 50.6751 179.821 51.022C179.748 51.3622 179.635 51.6547 179.482 51.8996C179.336 52.1445 179.147 52.3349 178.914 52.471C178.688 52.607 178.419 52.6751 178.107 52.6751C177.795 52.6751 177.522 52.607 177.29 52.471C177.057 52.3349 176.865 52.1445 176.712 51.8996C176.566 51.6547 176.456 51.3622 176.383 51.022C176.31 50.6751 176.273 50.2907 176.273 49.869C176.273 49.454 176.31 49.0731 176.383 48.7261C176.456 48.3792 176.566 48.0833 176.712 47.8384C176.865 47.5867 177.057 47.3928 177.29 47.2568C177.522 47.1207 177.795 47.0527 178.107 47.0527C178.419 47.0527 178.688 47.1207 178.914 47.2568C179.147 47.3928 179.336 47.5867 179.482 47.8384C179.635 48.0833 179.748 48.3792 179.821 48.7261C179.894 49.0731 179.93 49.454 179.93 49.869ZM179.034 49.869C179.034 49.5697 179.017 49.2976 178.984 49.0527C178.951 48.801 178.897 48.5867 178.824 48.4098C178.751 48.2261 178.655 48.0867 178.535 47.9915C178.416 47.8894 178.273 47.8384 178.107 47.8384C177.934 47.8384 177.788 47.8894 177.668 47.9915C177.555 48.0867 177.459 48.2261 177.379 48.4098C177.306 48.5867 177.253 48.801 177.22 49.0527C177.187 49.2976 177.17 49.5697 177.17 49.869C177.17 50.1683 177.187 50.4438 177.22 50.6955C177.253 50.9404 177.306 51.1513 177.379 51.3281C177.459 51.505 177.555 51.6445 177.668 51.7465C177.788 51.8417 177.934 51.8894 178.107 51.8894C178.273 51.8894 178.416 51.8417 178.535 51.7465C178.655 51.6445 178.751 51.505 178.824 51.3281C178.897 51.1513 178.951 50.9404 178.984 50.6955C179.017 50.4438 179.034 50.1683 179.034 49.869Z" fill="white"/>
<path d="M182.211 46.6649C182.151 46.8146 182.102 46.9847 182.062 47.1751C182.029 47.3588 181.999 47.5697 181.972 47.8078C182.118 47.7193 182.278 47.6547 182.45 47.6139C182.623 47.5731 182.796 47.5527 182.969 47.5527C183.487 47.5527 183.895 47.7534 184.194 48.1547C184.493 48.5493 184.643 49.1887 184.643 50.0731C184.643 50.8894 184.497 51.5288 184.204 51.9914C183.919 52.4472 183.477 52.6751 182.879 52.6751C182.527 52.6751 182.235 52.5934 182.002 52.4302C181.769 52.2669 181.583 52.039 181.444 51.7465C181.304 51.454 181.205 51.1037 181.145 50.6955C181.085 50.2805 181.055 49.8282 181.055 49.3384C181.055 49.1003 181.059 48.8554 181.065 48.6037C181.072 48.352 181.085 48.1037 181.105 47.8588C181.132 47.6071 181.168 47.3622 181.215 47.1241C181.261 46.886 181.324 46.6581 181.404 46.4405C181.557 46.0391 181.75 45.7296 181.982 45.5119C182.215 45.2874 182.46 45.1207 182.719 45.0119C182.979 44.8963 183.238 44.818 183.497 44.7772C183.756 44.7296 183.995 44.6786 184.214 44.6241L184.354 45.4099C184.128 45.4643 183.909 45.5119 183.696 45.5527C183.49 45.5867 183.294 45.6411 183.108 45.716C182.922 45.7908 182.753 45.8996 182.6 46.0425C182.447 46.1854 182.318 46.3928 182.211 46.6649ZM182.849 48.318C182.656 48.318 182.487 48.3486 182.341 48.4098C182.195 48.471 182.065 48.5459 181.952 48.6343C181.946 48.7499 181.942 48.869 181.942 48.9914C181.942 49.1139 181.942 49.2397 181.942 49.369C181.942 50.1853 182.009 50.8145 182.141 51.2567C182.281 51.6921 182.54 51.9098 182.919 51.9098C183.191 51.9098 183.397 51.7737 183.537 51.5016C183.676 51.2227 183.746 50.7465 183.746 50.0731C183.746 49.5084 183.676 49.0765 183.537 48.7772C183.397 48.471 183.168 48.318 182.849 48.318Z" fill="white"/>
<path d="M186.732 51.7363C186.925 51.8451 187.131 51.8996 187.35 51.8996C187.516 51.8996 187.662 51.8656 187.788 51.7975C187.915 51.7295 188.021 51.6173 188.107 51.4608C188.2 51.3043 188.27 51.0969 188.316 50.8384C188.363 50.5799 188.386 50.2601 188.386 49.8792C188.386 49.1445 188.293 48.6207 188.107 48.3078C187.928 47.9881 187.639 47.8282 187.24 47.8282C187.167 47.8282 187.087 47.835 187.001 47.8486C186.915 47.8554 186.825 47.8724 186.732 47.8996V51.7363ZM186.732 54.4302H185.875V47.3282C186.061 47.2466 186.27 47.1819 186.503 47.1343C186.742 47.0799 186.985 47.0527 187.23 47.0527C187.596 47.0527 187.908 47.1173 188.167 47.2466C188.433 47.3758 188.645 47.5629 188.805 47.8078C188.971 48.0459 189.09 48.3418 189.163 48.6955C189.243 49.0425 189.283 49.4404 189.283 49.8894C189.283 50.7941 189.14 51.4846 188.855 51.9608C188.576 52.437 188.117 52.6751 187.479 52.6751C187.327 52.6751 187.19 52.6581 187.071 52.6241C186.951 52.5968 186.838 52.556 186.732 52.5016V54.4302Z" fill="white"/>
<path d="M190.616 47.2976C190.789 47.2228 190.972 47.1649 191.164 47.1241C191.357 47.0765 191.566 47.0527 191.792 47.0527C192.257 47.0527 192.636 47.2023 192.928 47.5017C193.22 47.7942 193.367 48.2534 193.367 48.8792V52.4302C193.127 52.4982 192.882 52.5526 192.629 52.5934C192.383 52.6343 192.141 52.6547 191.902 52.6547C191.663 52.6547 191.437 52.6241 191.224 52.5628C191.018 52.5016 190.836 52.403 190.676 52.2669C190.523 52.1309 190.4 51.9608 190.307 51.7567C190.214 51.5458 190.168 51.2907 190.168 50.9914C190.168 50.7125 190.208 50.471 190.287 50.2669C190.374 50.0561 190.49 49.8826 190.636 49.7465C190.782 49.6037 190.955 49.4982 191.154 49.4302C191.354 49.3554 191.57 49.318 191.802 49.318C192.021 49.318 192.264 49.3452 192.53 49.3996V48.9098C192.53 48.5153 192.453 48.2397 192.3 48.0833C192.154 47.9268 191.942 47.8486 191.663 47.8486C191.51 47.8486 191.364 47.8656 191.224 47.8996C191.091 47.9268 190.948 47.9744 190.796 48.0425L190.616 47.2976ZM191.025 50.9812C191.025 51.2941 191.105 51.5254 191.264 51.6751C191.423 51.8247 191.649 51.8996 191.942 51.8996C192.121 51.8996 192.317 51.8758 192.53 51.8281V50.1241C192.33 50.0697 192.134 50.0424 191.942 50.0424C191.815 50.0424 191.696 50.0595 191.583 50.0935C191.47 50.1207 191.37 50.1717 191.284 50.2465C191.204 50.3146 191.141 50.4098 191.095 50.5322C191.048 50.6479 191.025 50.7975 191.025 50.9812Z" fill="white"/>
<path d="M196.442 49.6955C196.701 49.7908 196.917 49.9642 197.089 50.2159C197.262 50.4676 197.348 50.7499 197.348 51.0628C197.348 51.6003 197.189 52.0084 196.87 52.2873C196.558 52.5594 196.149 52.6955 195.644 52.6955C195.419 52.6955 195.196 52.6683 194.977 52.6138C194.758 52.5662 194.558 52.488 194.379 52.3792L194.518 51.6547C194.658 51.7295 194.827 51.7941 195.027 51.8485C195.226 51.903 195.422 51.9302 195.615 51.9302C195.734 51.9302 195.847 51.9166 195.953 51.8894C196.06 51.8554 196.153 51.8077 196.232 51.7465C196.312 51.6785 196.375 51.59 196.422 51.4812C196.475 51.3656 196.501 51.2261 196.501 51.0628C196.501 50.8792 196.468 50.7261 196.402 50.6037C196.335 50.4744 196.246 50.3724 196.133 50.2975C196.02 50.2227 195.887 50.1683 195.734 50.1343C195.588 50.1003 195.432 50.0833 195.266 50.0833H194.927V49.3894H195.206C195.598 49.3894 195.887 49.318 196.073 49.1751C196.259 49.0323 196.352 48.8418 196.352 48.6037C196.352 48.3452 196.272 48.1581 196.113 48.0425C195.96 47.9268 195.777 47.869 195.565 47.869C195.419 47.869 195.266 47.8928 195.106 47.9404C194.947 47.9881 194.787 48.0595 194.628 48.1547L194.449 47.4098C194.628 47.3146 194.817 47.2398 195.017 47.1853C195.216 47.1241 195.425 47.0935 195.644 47.0935C196.109 47.0935 196.482 47.2194 196.761 47.4711C197.046 47.7227 197.189 48.0595 197.189 48.4812C197.189 48.7738 197.116 49.0255 196.97 49.2363C196.83 49.4404 196.654 49.5935 196.442 49.6955Z" fill="white"/>
<path d="M201.865 49.869C201.865 50.2907 201.828 50.6751 201.755 51.022C201.682 51.3622 201.569 51.6547 201.416 51.8996C201.27 52.1445 201.081 52.3349 200.848 52.471C200.622 52.607 200.353 52.6751 200.041 52.6751C199.729 52.6751 199.456 52.607 199.224 52.471C198.991 52.3349 198.799 52.1445 198.646 51.8996C198.5 51.6547 198.39 51.3622 198.317 51.022C198.244 50.6751 198.208 50.2907 198.208 49.869C198.208 49.454 198.244 49.0731 198.317 48.7261C198.39 48.3792 198.5 48.0833 198.646 47.8384C198.799 47.5867 198.991 47.3928 199.224 47.2568C199.456 47.1207 199.729 47.0527 200.041 47.0527C200.353 47.0527 200.622 47.1207 200.848 47.2568C201.081 47.3928 201.27 47.5867 201.416 47.8384C201.569 48.0833 201.682 48.3792 201.755 48.7261C201.828 49.0731 201.865 49.454 201.865 49.869ZM200.968 49.869C200.968 49.5697 200.951 49.2976 200.918 49.0527C200.885 48.801 200.832 48.5867 200.758 48.4098C200.685 48.2261 200.589 48.0867 200.47 47.9915C200.35 47.8894 200.207 47.8384 200.041 47.8384C199.868 47.8384 199.722 47.8894 199.603 47.9915C199.49 48.0867 199.393 48.2261 199.314 48.4098C199.241 48.5867 199.187 48.801 199.154 49.0527C199.121 49.2976 199.104 49.5697 199.104 49.869C199.104 50.1683 199.121 50.4438 199.154 50.6955C199.187 50.9404 199.241 51.1513 199.314 51.3281C199.393 51.505 199.49 51.6445 199.603 51.7465C199.722 51.8417 199.868 51.8894 200.041 51.8894C200.207 51.8894 200.35 51.8417 200.47 51.7465C200.589 51.6445 200.685 51.505 200.758 51.3281C200.832 51.1513 200.885 50.9404 200.918 50.6955C200.951 50.4438 200.968 50.1683 200.968 49.869Z" fill="white"/>
<path d="M203.976 50.1241V51.869C204.195 51.9098 204.415 51.9302 204.634 51.9302C204.913 51.9302 205.149 51.8656 205.341 51.7363C205.534 51.6003 205.63 51.3656 205.63 51.0322C205.63 50.6853 205.537 50.4472 205.351 50.318C205.172 50.1887 204.906 50.1241 204.554 50.1241H203.976ZM204.624 52.6343C204.318 52.6343 204.029 52.6104 203.757 52.5628C203.484 52.522 203.272 52.4744 203.119 52.42V47.267C203.292 47.2125 203.508 47.1649 203.767 47.1241C204.033 47.0765 204.318 47.0527 204.624 47.0527C204.843 47.0527 205.056 47.0799 205.262 47.1343C205.474 47.1887 205.66 47.2738 205.82 47.3894C205.979 47.5051 206.105 47.6615 206.198 47.8588C206.298 48.0493 206.348 48.2806 206.348 48.5527C206.348 48.8384 206.285 49.0799 206.158 49.2772C206.032 49.4676 205.863 49.6241 205.65 49.7465C205.896 49.8418 206.102 50.0016 206.268 50.2261C206.434 50.4506 206.517 50.7159 206.517 51.022C206.517 51.335 206.467 51.5969 206.368 51.8077C206.275 52.0118 206.142 52.1751 205.969 52.2975C205.803 52.42 205.604 52.505 205.371 52.5526C205.139 52.607 204.889 52.6343 204.624 52.6343ZM204.544 47.7772C204.371 47.7772 204.182 47.7976 203.976 47.8384V49.471H204.544C204.843 49.471 205.072 49.4132 205.232 49.2976C205.391 49.1819 205.471 48.9642 205.471 48.6445C205.471 48.4608 205.444 48.3146 205.391 48.2057C205.338 48.0901 205.265 48.0017 205.172 47.9404C205.085 47.8724 204.986 47.8282 204.873 47.8078C204.767 47.7874 204.657 47.7772 204.544 47.7772Z" fill="white"/>
<path d="M207.821 47.2976C207.994 47.2228 208.177 47.1649 208.369 47.1241C208.562 47.0765 208.771 47.0527 208.997 47.0527C209.462 47.0527 209.841 47.2023 210.133 47.5017C210.425 47.7942 210.571 48.2534 210.571 48.8792V52.4302C210.332 52.4982 210.086 52.5526 209.834 52.5934C209.588 52.6343 209.346 52.6547 209.107 52.6547C208.867 52.6547 208.642 52.6241 208.429 52.5628C208.223 52.5016 208.04 52.403 207.881 52.2669C207.728 52.1309 207.605 51.9608 207.512 51.7567C207.419 51.5458 207.373 51.2907 207.373 50.9914C207.373 50.7125 207.413 50.471 207.492 50.2669C207.579 50.0561 207.695 49.8826 207.841 49.7465C207.987 49.6037 208.16 49.4982 208.359 49.4302C208.559 49.3554 208.774 49.318 209.007 49.318C209.226 49.318 209.469 49.3452 209.734 49.3996V48.9098C209.734 48.5153 209.658 48.2397 209.505 48.0833C209.359 47.9268 209.146 47.8486 208.867 47.8486C208.715 47.8486 208.568 47.8656 208.429 47.8996C208.296 47.9268 208.153 47.9744 208.001 48.0425L207.821 47.2976ZM208.23 50.9812C208.23 51.2941 208.309 51.5254 208.469 51.6751C208.628 51.8247 208.854 51.8996 209.146 51.8996C209.326 51.8996 209.522 51.8758 209.734 51.8281V50.1241C209.535 50.0697 209.339 50.0424 209.146 50.0424C209.02 50.0424 208.901 50.0595 208.788 50.0935C208.675 50.1207 208.575 50.1717 208.489 50.2465C208.409 50.3146 208.346 50.4098 208.299 50.5322C208.253 50.6479 208.23 50.7975 208.23 50.9812Z" fill="white"/>
<path d="M215.43 47.1853V52.5424H214.573V50.1547H212.919V52.5424H212.062V47.1853H212.919V49.3996H214.573V47.1853H215.43Z" fill="white"/>
<path d="M220.304 47.1547V52.5424H219.497V48.6649C219.358 48.9302 219.202 49.2329 219.029 49.5731C218.856 49.9132 218.683 50.2601 218.511 50.6139C218.345 50.9676 218.185 51.3145 218.032 51.6547C217.886 51.988 217.763 52.2839 217.664 52.5424H216.986V47.1547H217.783V50.6853C217.903 50.4064 218.042 50.1071 218.202 49.7873C218.361 49.4608 218.524 49.1411 218.69 48.8282C218.856 48.5085 219.019 48.2057 219.178 47.92C219.344 47.6275 219.497 47.3724 219.637 47.1547H220.304Z" fill="white"/>
<path d="M222.449 50.1241C222.456 50.3826 222.479 50.6207 222.519 50.8384C222.559 51.0492 222.622 51.2363 222.708 51.3996C222.801 51.556 222.921 51.6785 223.067 51.7669C223.22 51.8554 223.413 51.8996 223.645 51.8996C223.838 51.8996 224.014 51.8724 224.173 51.8179C224.339 51.7567 224.459 51.7057 224.532 51.6649L224.691 52.369C224.605 52.4302 224.459 52.4948 224.253 52.5628C224.054 52.6377 223.815 52.6751 223.535 52.6751C223.17 52.6751 222.861 52.607 222.609 52.471C222.363 52.3349 222.16 52.1445 222.001 51.8996C221.848 51.6547 221.739 51.3622 221.672 51.022C221.606 50.6819 221.572 50.3078 221.572 49.8996C221.572 48.9132 221.732 48.1921 222.051 47.7364C222.37 47.2806 222.791 47.0527 223.316 47.0527C223.908 47.0527 224.326 47.2806 224.572 47.7364C224.818 48.1921 224.941 48.8316 224.941 49.6547C224.941 49.7295 224.941 49.8078 224.941 49.8894C224.941 49.9642 224.937 50.0424 224.931 50.1241H222.449ZM223.316 47.7976C223.031 47.7976 222.821 47.9438 222.688 48.2363C222.562 48.5289 222.486 48.92 222.459 49.4098H224.044C224.044 48.9132 223.994 48.5221 223.894 48.2363C223.795 47.9438 223.602 47.7976 223.316 47.7976Z" fill="white"/>
<path d="M229.005 50.1241V51.869C229.224 51.9098 229.443 51.9302 229.662 51.9302C229.941 51.9302 230.177 51.8656 230.37 51.7363C230.563 51.6003 230.659 51.3656 230.659 51.0322C230.659 50.6853 230.566 50.4472 230.38 50.318C230.201 50.1887 229.935 50.1241 229.583 50.1241H229.005ZM229.652 52.6343C229.347 52.6343 229.058 52.6104 228.786 52.5628C228.513 52.522 228.301 52.4744 228.148 52.42V47.267C228.321 47.2125 228.536 47.1649 228.796 47.1241C229.061 47.0765 229.347 47.0527 229.652 47.0527C229.872 47.0527 230.084 47.0799 230.29 47.1343C230.503 47.1887 230.689 47.2738 230.848 47.3894C231.008 47.5051 231.134 47.6615 231.227 47.8588C231.327 48.0493 231.376 48.2806 231.376 48.5527C231.376 48.8384 231.313 49.0799 231.187 49.2772C231.061 49.4676 230.891 49.6241 230.679 49.7465C230.925 49.8418 231.131 50.0016 231.297 50.2261C231.463 50.4506 231.546 50.7159 231.546 51.022C231.546 51.335 231.496 51.5969 231.396 51.8077C231.303 52.0118 231.17 52.1751 230.998 52.2975C230.832 52.42 230.632 52.505 230.4 52.5526C230.167 52.607 229.918 52.6343 229.652 52.6343ZM229.573 47.7772C229.4 47.7772 229.211 47.7976 229.005 47.8384V49.471H229.573C229.872 49.471 230.101 49.4132 230.26 49.2976C230.42 49.1819 230.499 48.9642 230.499 48.6445C230.499 48.4608 230.473 48.3146 230.42 48.2057C230.367 48.0901 230.294 48.0017 230.201 47.9404C230.114 47.8724 230.015 47.8282 229.902 47.8078C229.795 47.7874 229.686 47.7772 229.573 47.7772Z" fill="white"/>
<path d="M234.728 45.4711H235.624V52.5424H234.728V45.4711Z" fill="white"/>
<path d="M240.565 45.4711V46.2568H239.03V52.5424H238.134V46.2568H236.599V45.4711H240.565Z" fill="white"/>
</g>
<defs>
<clipPath id="clip0_5901_2101">
<rect width="241" height="63" fill="white" transform="translate(0.650391 0.892822)"/>
</clipPath>
</defs>
</svg>
