<svg width="43" height="43" viewBox="0 0 43 43" fill="none" xmlns="http://www.w3.org/2000/svg">
<path d="M21.0356 42.142C19.2204 42.142 17.7436 40.6652 17.7436 38.8498C17.7436 37.0344 19.2204 35.5574 21.0356 35.5574C22.851 35.5574 24.3279 37.0344 24.3279 38.8498C24.3279 40.6652 22.851 42.142 21.0356 42.142ZM21.0356 37.3485C20.2079 37.3485 19.5346 38.022 19.5346 38.8498C19.5346 39.6776 20.2079 40.351 21.0356 40.351C21.8634 40.351 22.5369 39.6775 22.5369 38.8498C22.5369 38.022 21.8634 37.3485 21.0356 37.3485ZM27.4122 38.4357C27.0532 38.4357 26.7145 38.2185 26.577 37.8637C26.3982 37.4025 26.6273 36.8838 27.0884 36.705C31.5801 34.9639 35.1177 31.3754 36.7941 26.8592C36.9662 26.3956 37.4817 26.1593 37.9453 26.3313C38.409 26.5034 38.6453 27.0188 38.4732 27.4825C36.6186 32.4787 32.7049 36.4489 27.7356 38.375C27.6292 38.4161 27.5198 38.4357 27.4122 38.4357ZM14.631 38.4357C14.5234 38.4357 14.4139 38.4163 14.3076 38.375C9.33828 36.4489 5.42456 32.4787 3.56984 27.4825C3.39768 27.0187 3.63409 26.5035 4.09774 26.3313C4.56162 26.1592 5.07676 26.3955 5.24892 26.8592C6.92544 31.3754 10.463 34.9639 14.9548 36.705C15.416 36.8838 15.6449 37.4024 15.4662 37.8637C15.3287 38.2185 14.9899 38.4357 14.631 38.4357ZM22.0098 34.2959H20.0617C17.2498 34.2959 16.0109 32.0446 15.3233 30.351L15.0684 29.7228C14.8825 29.2645 15.1034 28.7423 15.5616 28.5563C16.02 28.3703 16.5421 28.5912 16.7281 29.0494L16.9828 29.6776C17.3679 30.6263 17.7702 31.3096 18.2321 31.7665L20.3122 28.9159C20.4808 28.6849 20.7496 28.5483 21.0356 28.5483C21.3216 28.5483 21.5904 28.6848 21.7589 28.9159L23.8393 31.7664C24.3012 31.3095 24.7034 30.6261 25.0884 29.6774L25.3433 29.0493C25.5293 28.5909 26.0516 28.3705 26.5099 28.5563C26.9681 28.7424 27.1889 29.2646 27.0028 29.723L26.7479 30.351C26.0608 32.0443 24.8218 34.2959 22.0098 34.2959ZM19.9129 32.5015C19.962 32.5037 20.0115 32.5048 20.0617 32.5048H22.0097C22.06 32.5048 22.1095 32.5036 22.1587 32.5015L21.0358 30.9629L19.9129 32.5015ZM12.7594 27.1433C12.6472 27.1433 12.5332 27.1222 12.423 27.0774L11.7949 26.8225C10.1014 26.135 7.84994 24.896 7.84994 22.0841V20.1363C7.84994 17.3244 10.1014 16.0853 11.7948 15.3979L12.423 15.1429C12.881 14.957 13.4035 15.1777 13.5895 15.6359C13.7755 16.0943 13.5548 16.6165 13.0965 16.8025L12.4684 17.0574C11.5198 17.4423 10.8365 17.8445 10.3794 18.3064L13.2302 20.3868C13.4612 20.5554 13.5978 20.8241 13.5978 21.1101C13.5978 21.3961 13.4612 21.6649 13.2302 21.8335L10.3794 23.9138C10.8364 24.3756 11.5198 24.7779 12.4684 25.1629L13.0965 25.4178C13.5548 25.6038 13.7755 26.126 13.5895 26.5844C13.4482 26.9323 13.1131 27.1433 12.7594 27.1433ZM9.64433 19.9871C9.64209 20.0361 9.64097 20.0857 9.64097 20.1359V22.084C9.64097 22.1343 9.64209 22.184 9.64433 22.2329L11.1832 21.11L9.64433 19.9871ZM29.312 27.1433C28.9582 27.1433 28.6231 26.9323 28.4819 26.5843C28.296 26.126 28.5167 25.6037 28.975 25.4178L29.6032 25.1629C30.5519 24.7778 31.2351 24.3756 31.6921 23.9138L28.8413 21.8335C28.6103 21.6649 28.4737 21.3961 28.4737 21.1101C28.4737 20.8241 28.6103 20.5554 28.8413 20.3868L31.692 18.3064C31.235 17.8447 30.5516 17.4423 29.6031 17.0574L28.975 16.8025C28.5167 16.6166 28.296 16.0943 28.4819 15.636C28.6678 15.1777 29.1902 14.9572 29.6484 15.1429L30.2766 15.3978C31.9701 16.0853 34.2216 17.3242 34.2216 20.136V22.0841C34.2216 24.896 31.9702 26.135 30.2767 26.8224L29.6484 27.0774C29.5381 27.1222 29.4242 27.1433 29.312 27.1433ZM30.8885 21.1101L32.4272 22.233C32.4294 22.184 32.4305 22.1344 32.4305 22.0841V20.1363C32.4305 20.086 32.4294 20.0362 32.4272 19.9872L30.8885 21.1101ZM38.7754 24.4024C36.96 24.4024 35.4831 22.9256 35.4831 21.1103C35.4831 19.2948 36.96 17.8179 38.7754 17.8179C40.5908 17.8179 42.0677 19.2948 42.0677 21.1103C42.0677 22.9255 40.5908 24.4024 38.7754 24.4024ZM38.7754 19.6089C37.9476 19.6089 37.2741 20.2825 37.2741 21.1103C37.2741 21.938 37.9476 22.6114 38.7754 22.6114C39.6031 22.6114 40.2767 21.9379 40.2767 21.1103C40.2767 20.2823 39.6031 19.6089 38.7754 19.6089ZM3.29604 24.4024C1.48072 24.4024 0.00390625 22.9256 0.00390625 21.1103C0.00390625 19.2948 1.48072 17.8179 3.29604 17.8179C5.11135 17.8179 6.58828 19.2948 6.58828 21.1103C6.58828 22.9255 5.11135 24.4024 3.29604 24.4024ZM3.29604 19.6089C2.46825 19.6089 1.79493 20.2825 1.79493 21.1103C1.79493 21.938 2.46836 22.6114 3.29604 22.6114C4.12382 22.6114 4.79725 21.9379 4.79725 21.1103C4.79725 20.2823 4.12382 19.6089 3.29604 19.6089ZM37.6338 15.8356C37.2701 15.8356 36.9281 15.6125 36.7941 15.2515C35.1177 10.7353 31.5801 7.14674 27.0884 5.40564C26.6272 5.22688 26.3982 4.70826 26.577 4.24696C26.7557 3.78588 27.2745 3.55652 27.7357 3.73573C32.705 5.66176 36.6186 9.6319 38.4733 14.6282C38.6455 15.092 38.4091 15.6073 37.9454 15.7794C37.8426 15.8174 37.7372 15.8356 37.6338 15.8356ZM4.40927 15.8356C4.30573 15.8356 4.2005 15.8175 4.09774 15.7794C3.63409 15.6072 3.39779 15.0917 3.56984 14.6282C5.42456 9.6319 9.33828 5.66176 14.3076 3.73573C14.7687 3.55708 15.2874 3.78588 15.4663 4.24696C15.645 4.70815 15.416 5.22688 14.9549 5.40564C10.4633 7.14674 6.92555 10.7353 5.24904 15.2515C5.11493 15.6122 4.77285 15.8356 4.40927 15.8356ZM15.898 13.7299C15.786 13.7299 15.6719 13.7087 15.5618 13.6639C15.1035 13.478 14.8826 12.9558 15.0686 12.4974L15.3233 11.8693C16.0109 10.1757 17.2499 7.92427 20.0617 7.92427H22.0097C24.8217 7.92427 26.0606 10.1757 26.7481 11.8692L27.0029 12.4973C27.189 12.9557 26.9682 13.4779 26.51 13.6639C26.0515 13.8497 25.5294 13.629 25.3434 13.171L25.0886 12.5429C24.7035 11.5941 24.3013 10.9108 23.8394 10.4538L21.759 13.3044C21.5905 13.5353 21.3217 13.672 21.0357 13.672C20.7497 13.672 20.4808 13.5353 20.3123 13.3044L18.2322 10.4538C17.7703 10.9107 17.368 11.5942 16.9829 12.5429L16.7282 13.1709C16.587 13.5188 16.2518 13.7299 15.898 13.7299ZM19.9129 9.71854L21.0358 11.2573L22.1587 9.71854C22.1096 9.7163 22.06 9.7153 22.0098 9.7153H20.0617C20.0115 9.7153 19.9619 9.71642 19.9129 9.71854ZM21.0356 6.66261C19.2204 6.66261 17.7436 5.18579 17.7436 3.37037C17.7436 1.55494 19.2204 0.078125 21.0356 0.078125C22.851 0.078125 24.3279 1.55494 24.3279 3.37037C24.3279 5.18579 22.851 6.66261 21.0356 6.66261ZM21.0356 1.86915C20.2079 1.86915 19.5346 2.54269 19.5346 3.37037C19.5346 4.19804 20.2079 4.87158 21.0356 4.87158C21.8634 4.87158 22.5369 4.19804 22.5369 3.37037C22.5369 2.54269 21.8634 1.86915 21.0356 1.86915Z" fill="#0D78F0"/>
</svg>
