<svg width="24" height="24" viewBox="0 0 24 24" fill="none" xmlns="http://www.w3.org/2000/svg">
<path d="M17.0682 2.09094H7.55659C4.93003 2.09094 2.80078 4.22019 2.80078 6.84675V16.3584C2.80078 18.9849 4.93003 21.1142 7.55659 21.1142H17.0682C19.6948 21.1142 21.824 18.9849 21.824 16.3584V6.84675C21.824 4.22019 19.6948 2.09094 17.0682 2.09094Z" stroke="#1280FF" stroke-width="1.90232" stroke-linecap="round" stroke-linejoin="round"/>
<path d="M16.117 11.0033C16.2344 11.7949 16.0991 12.6033 15.7306 13.3137C15.362 14.024 14.7788 14.6 14.064 14.9598C13.3492 15.3196 12.5391 15.4448 11.749 15.3177C10.9589 15.1906 10.2291 14.8175 9.66319 14.2517C9.09732 13.6858 8.72429 12.9559 8.59715 12.1658C8.47002 11.3757 8.59525 10.5656 8.95504 9.85083C9.31482 9.13602 9.89084 8.55285 10.6012 8.18427C11.3115 7.8157 12.12 7.68049 12.9116 7.79787C13.719 7.91761 14.4666 8.29387 15.0438 8.87107C15.621 9.44828 15.9972 10.1958 16.117 11.0033Z" stroke="#1280FF" stroke-width="1.90232" stroke-linecap="round" stroke-linejoin="round"/>
<path d="M17.543 6.37115H17.553" stroke="#1280FF" stroke-width="1.90232" stroke-linecap="round" stroke-linejoin="round"/>
</svg>
