<svg width="22" height="24" viewBox="0 0 22 24" fill="none" xmlns="http://www.w3.org/2000/svg">
<path d="M15.2443 12.8634C16.8564 11.6299 17.9004 9.69205 17.9004 7.50561C17.9004 3.77793 14.8781 0.755615 11.1504 0.755615C7.4227 0.755615 4.40039 3.77793 4.40039 7.50561C4.40039 9.69205 5.44439 11.6299 7.05652 12.8634C3.18539 14.5543 0.462891 18.5672 0.462891 23.2556H21.8379C21.8379 18.5672 19.1154 14.5543 15.2443 12.8634ZM6.65039 7.50561C6.65039 5.02443 8.6692 3.00561 11.1504 3.00561C13.6316 3.00561 15.6504 5.02443 15.6504 7.50561C15.6504 9.9868 13.6316 12.0056 11.1504 12.0056C8.6692 12.0056 6.65039 9.9868 6.65039 7.50561ZM11.1504 14.2556C15.075 14.2556 18.3819 17.1283 19.3207 21.0056H2.98008C3.91889 17.1283 7.22583 14.2556 11.1504 14.2556Z" fill="#64A6F1"/>
</svg>
