<svg width="26" height="25" viewBox="0 0 26 25" fill="none" xmlns="http://www.w3.org/2000/svg">
<path d="M21.8466 17.7007C22.4034 17.0115 22.7089 16.1533 22.7129 15.2673C22.7129 14.223 22.298 13.2215 21.5596 12.4831C20.8212 11.7447 19.8197 11.3298 18.7754 11.3298C17.7311 11.3298 16.7296 11.7447 15.9912 12.4831C15.2527 13.2215 14.8379 14.223 14.8379 15.2673C14.8419 16.1533 15.1474 17.0115 15.7041 17.7007C14.6722 18.2304 13.7931 19.0154 13.1504 19.9811C12.5077 19.0154 11.6286 18.2304 10.5966 17.7007C11.1534 17.0115 11.4589 16.1533 11.4629 15.2673C11.4629 14.223 11.048 13.2215 10.3096 12.4831C9.5712 11.7447 8.56968 11.3298 7.52539 11.3298C6.4811 11.3298 5.47958 11.7447 4.74116 12.4831C4.00273 13.2215 3.58789 14.223 3.58789 15.2673C3.59189 16.1533 3.8974 17.0115 4.45414 17.7007C3.34778 18.266 2.4189 19.1257 1.76982 20.1851C1.12073 21.2444 0.776623 22.4624 0.775391 23.7048C0.775391 24.0032 0.893917 24.2894 1.1049 24.5003C1.31587 24.7113 1.60202 24.8298 1.90039 24.8298H24.4004C24.6988 24.8298 24.9849 24.7113 25.1959 24.5003C25.4069 24.2894 25.5254 24.0032 25.5254 23.7048C25.5242 22.4624 25.18 21.2444 24.531 20.1851C23.8819 19.1257 22.953 18.266 21.8466 17.7007ZM7.52539 13.5798C7.85915 13.5798 8.18541 13.6788 8.46292 13.8642C8.74042 14.0497 8.95671 14.3132 9.08444 14.6216C9.21216 14.9299 9.24558 15.2692 9.18047 15.5965C9.11535 15.9239 8.95463 16.2246 8.71863 16.4606C8.48263 16.6966 8.18195 16.8573 7.85461 16.9224C7.52726 16.9875 7.18796 16.9541 6.87961 16.8264C6.57126 16.6987 6.30771 16.4824 6.12229 16.2049C5.93686 15.9274 5.83789 15.6011 5.83789 15.2673C5.83789 14.8198 6.01568 14.3906 6.33215 14.0741C6.64862 13.7576 7.07784 13.5798 7.52539 13.5798ZM3.16714 22.5798C3.41576 21.6129 3.9789 20.756 4.7679 20.1442C5.55691 19.5324 6.52697 19.2004 7.52539 19.2004C8.52381 19.2004 9.49387 19.5324 10.2829 20.1442C11.0719 20.756 11.635 21.6129 11.8836 22.5798H3.16714ZM18.7754 13.5798C19.1091 13.5798 19.4354 13.6788 19.7129 13.8642C19.9904 14.0497 20.2067 14.3132 20.3344 14.6216C20.4622 14.9299 20.4956 15.2692 20.4305 15.5965C20.3654 15.9239 20.2046 16.2246 19.9686 16.4606C19.7326 16.6966 19.4319 16.8573 19.1046 16.9224C18.7773 16.9875 18.438 16.9541 18.1296 16.8264C17.8213 16.6987 17.5577 16.4824 17.3723 16.2049C17.1869 15.9274 17.0879 15.6011 17.0879 15.2673C17.0879 14.8198 17.2657 14.3906 17.5821 14.0741C17.8986 13.7576 18.3278 13.5798 18.7754 13.5798ZM14.4183 22.5798C14.6677 21.6139 15.231 20.7582 16.0197 20.1472C16.8084 19.5363 17.7777 19.2048 18.7754 19.2048C19.773 19.2048 20.7424 19.5363 21.5311 20.1472C22.3198 20.7582 22.8831 21.6139 23.1325 22.5798H14.4183ZM7.75039 8.40483C7.57137 8.64353 7.4945 8.94356 7.5367 9.23893C7.57889 9.5343 7.7367 9.80081 7.97539 9.97983C8.21409 10.1589 8.51412 10.2357 8.80949 10.1935C9.10486 10.1513 9.37137 9.99353 9.55039 9.75483C9.96955 9.19595 10.5131 8.74234 11.1379 8.42991C11.7628 8.11749 12.4518 7.95483 13.1504 7.95483C13.849 7.95483 14.538 8.11749 15.1629 8.42991C15.7877 8.74234 16.3312 9.19595 16.7504 9.75483C16.839 9.87302 16.9501 9.9726 17.0772 10.0479C17.2043 10.1231 17.345 10.1726 17.4913 10.1935C17.6375 10.2144 17.7865 10.2063 17.9296 10.1696C18.0727 10.133 18.2072 10.0685 18.3254 9.97983C18.4436 9.89119 18.5432 9.78014 18.6184 9.65301C18.6937 9.52589 18.7432 9.38519 18.7641 9.23893C18.785 9.09268 18.7769 8.94374 18.7402 8.80063C18.7035 8.65751 18.639 8.52302 18.5504 8.40483C17.9351 7.58347 17.1406 6.91323 16.2273 6.44508C16.781 5.75677 17.0845 4.90074 17.0879 4.01733C17.0879 2.97304 16.673 1.97153 15.9346 1.2331C15.1962 0.494676 14.1947 0.079834 13.1504 0.079834C12.1061 0.079834 11.1046 0.494676 10.3662 1.2331C9.62773 1.97153 9.21289 2.97304 9.21289 4.01733C9.21655 4.90035 9.52 5.75595 10.0735 6.44396C9.15998 6.91223 8.36541 7.5829 7.75039 8.40483ZM13.1504 2.32983C13.4841 2.32983 13.8104 2.4288 14.0879 2.61423C14.3654 2.79965 14.5817 3.06321 14.7094 3.37156C14.8372 3.67991 14.8706 4.01921 14.8055 4.34655C14.7404 4.67389 14.5796 4.97458 14.3436 5.21058C14.1076 5.44658 13.8069 5.6073 13.4796 5.67241C13.1523 5.73752 12.813 5.7041 12.5046 5.57638C12.1963 5.44866 11.9327 5.23237 11.7473 4.95486C11.5619 4.67735 11.4629 4.35109 11.4629 4.01733C11.4629 3.56978 11.6407 3.14056 11.9571 2.82409C12.2736 2.50762 12.7028 2.32983 13.1504 2.32983Z" fill="#64A6F1"/>
</svg>
