<svg width="28" height="28" viewBox="0 0 28 28" fill="none" xmlns="http://www.w3.org/2000/svg">
<path d="M11.9556 2.93201L5.18312 7.35326C3.01188 8.77076 3.01188 11.9432 5.18312 13.3607L11.9556 17.782C13.1706 18.5807 15.1731 18.5807 16.3881 17.782L23.1269 13.3607C25.2869 11.9432 25.2869 8.78201 23.1269 7.36451L16.3881 2.94326C15.1731 2.13326 13.1706 2.13326 11.9556 2.93201Z" stroke="#64A6F1" stroke-width="2.01797" stroke-linecap="round" stroke-linejoin="round"/>
<path d="M6.98391 14.8007L6.97266 20.0769C6.97266 21.5057 8.07516 23.0357 9.42516 23.4857L13.0139 24.6782C13.6327 24.8807 14.6564 24.8807 15.2864 24.6782L18.8752 23.4857C20.2252 23.0357 21.3277 21.5057 21.3277 20.0769V14.8569" stroke="#64A6F1" stroke-width="2.01797" stroke-linecap="round" stroke-linejoin="round"/>
<path d="M24.7246 16.9607V10.2107" stroke="#64A6F1" stroke-width="2.01797" stroke-linecap="round" stroke-linejoin="round"/>
</svg>
