<svg width="28" height="28" viewBox="0 0 28 28" fill="none" xmlns="http://www.w3.org/2000/svg">
<g clip-path="url(#clip0_5902_21229)">
<path d="M22.8241 5.72505L18.3241 1.22505C18.1104 1.0113 17.8179 0.898804 17.5254 0.898804H7.40039C6.16289 0.898804 5.15039 1.9113 5.15039 3.1488V21.1488C5.15039 22.3863 6.16289 23.3988 7.40039 23.3988H20.9004C22.1379 23.3988 23.1504 22.3863 23.1504 21.1488V6.5238C23.1504 6.2313 23.0379 5.9388 22.8241 5.72505ZM17.5254 3.6213L20.4279 6.5238H18.0879C17.7729 6.5238 17.5254 6.2763 17.5254 5.9613V3.6213ZM20.9004 20.5863C20.9004 20.9013 20.6529 21.1488 20.3379 21.1488H7.96289C7.64789 21.1488 7.40039 20.9013 7.40039 20.5863V3.7113C7.40039 3.3963 7.64789 3.1488 7.96289 3.1488H14.7129C15.0279 3.1488 15.2754 3.3963 15.2754 3.7113V6.5238C15.2754 7.7613 16.2879 8.7738 17.5254 8.7738H20.3379C20.6529 8.7738 20.9004 9.0213 20.9004 9.3363V20.5863Z" fill="#64A6F1"/>
<path d="M27.6504 18.8988V24.5126C27.6504 26.3688 26.1316 27.8988 24.2754 27.8988H4.02539C2.16914 27.8988 0.661641 26.3801 0.650391 24.5238V18.8988C0.650391 18.8763 0.650391 18.8538 0.661641 18.8313C0.684141 18.2463 1.17914 17.7738 1.77539 17.7738C2.37164 17.7738 2.86664 18.2463 2.88914 18.8313C2.90039 18.8538 2.90039 18.8763 2.90039 18.8988V23.3988C2.91164 24.6363 3.92414 25.6376 5.15039 25.6376H23.1504C24.3766 25.6376 25.3891 24.6363 25.4004 23.3988V18.8988C25.4004 18.8763 25.4004 18.8538 25.4116 18.8313C25.4341 18.2463 25.9291 17.7738 26.5254 17.7738C27.1216 17.7738 27.6166 18.2463 27.6391 18.8313C27.6504 18.8538 27.6504 18.8763 27.6504 18.8988Z" fill="#64A6F1"/>
<path d="M17.5254 18.8988H10.7754C10.1533 18.8988 9.65039 18.3959 9.65039 17.7738C9.65039 17.1517 10.1533 16.6488 10.7754 16.6488H17.5254C18.1475 16.6488 18.6504 17.1517 18.6504 17.7738C18.6504 18.3959 18.1475 18.8988 17.5254 18.8988ZM17.5254 14.3988H10.7754C10.1533 14.3988 9.65039 13.8959 9.65039 13.2738C9.65039 12.6517 10.1533 12.1488 10.7754 12.1488H17.5254C18.1475 12.1488 18.6504 12.6517 18.6504 13.2738C18.6504 13.8959 18.1475 14.3988 17.5254 14.3988ZM13.0254 9.8988H10.7754C10.1533 9.8988 9.65039 9.39593 9.65039 8.7738C9.65039 8.15168 10.1533 7.6488 10.7754 7.6488H13.0254C13.6475 7.6488 14.1504 8.15168 14.1504 8.7738C14.1504 9.39593 13.6475 9.8988 13.0254 9.8988Z" fill="#64A6F1"/>
</g>
<defs>
<clipPath id="clip0_5902_21229">
<rect width="27" height="27" fill="white" transform="translate(0.650391 0.898804)"/>
</clipPath>
</defs>
</svg>
