<svg width="23" height="28" viewBox="0 0 23 28" fill="none" xmlns="http://www.w3.org/2000/svg">
<path d="M21.773 8.27433C21.289 8.27433 20.8965 7.93366 20.8965 7.51337V4.36825C20.8965 3.94802 21.289 3.6073 21.773 3.6073C22.257 3.6073 22.6495 3.94796 22.6495 4.36825V7.51342C22.6495 7.93366 22.2571 8.27433 21.773 8.27433Z" fill="#64A6F1"/>
<path d="M1.52691 8.27433C1.04291 8.27433 0.650391 7.93366 0.650391 7.51337V4.36825C0.650391 3.94802 1.04291 3.6073 1.52691 3.6073C2.01091 3.6073 2.40343 3.94796 2.40343 4.36825V7.51343C2.40343 7.93366 2.01097 8.27433 1.52691 8.27433Z" fill="#64A6F1"/>
<path d="M20.2801 22.4243H16.0327C15.5487 22.4243 15.1562 22.7649 15.1562 23.1852C15.1562 23.6054 15.5487 23.9462 16.0327 23.9462H19.4037V26.0546H3.89568V23.9462H11.9133C12.3973 23.9462 12.7898 23.6055 12.7898 23.1852C12.7898 22.7649 12.3973 22.4243 11.9133 22.4243H6.93453V20.3369H17.2412C17.7252 20.3369 18.1177 19.9962 18.1177 19.5759C18.1177 19.1556 17.7252 18.815 17.2412 18.815H14.5404V16.2389C14.5404 15.8187 14.1479 15.4779 13.6639 15.4779C13.1799 15.4779 12.7874 15.8186 12.7874 16.2389V18.815H10.5119V14.515L11.3081 14.8074C11.4174 14.8475 11.5335 14.8675 11.6496 14.8675C11.7658 14.8675 11.8819 14.8476 11.9911 14.8074L17.063 12.9448C18.6784 12.3514 19.7221 10.9842 19.7221 9.46161V1.33749C19.7221 0.917254 19.3296 0.576538 18.8456 0.576538H4.45354C3.96954 0.576538 3.57702 0.917201 3.57702 1.33749V9.46172C3.57702 10.9844 4.62077 12.3517 6.23611 12.9449L8.75882 13.8713V18.815H6.05801C5.57401 18.815 5.18149 19.1557 5.18149 19.576V22.4243H3.0191C2.5351 22.4243 2.14258 22.765 2.14258 23.1853V26.8156C2.14258 27.2358 2.5351 27.5765 3.0191 27.5765H20.2801C20.7641 27.5765 21.1566 27.2359 21.1566 26.8156V23.1853C21.1566 22.7649 20.7641 22.4243 20.2801 22.4243ZM5.33006 9.46167V2.09839H17.9692V9.46167C17.9692 10.3716 17.3454 11.1887 16.3801 11.5432L11.6495 13.2805L6.9191 11.5432C5.95383 11.1887 5.33006 10.3716 5.33006 9.46167Z" fill="#64A6F1"/>
</svg>
