<svg width="28" height="28" viewBox="0 0 28 28" fill="none" xmlns="http://www.w3.org/2000/svg">
<g clip-path="url(#clip0_5902_21241)">
<path d="M23.8086 5.00715H21.1086C21.1086 4.26149 20.5043 3.65715 19.7586 3.65715H18.4086V2.30715C18.4086 1.56149 17.8043 0.957153 17.0586 0.957153H11.6586C10.9129 0.957153 10.3086 1.56149 10.3086 2.30715V3.65715H8.95859C8.21293 3.65715 7.60859 4.26149 7.60859 5.00715H4.90859C4.16293 5.00715 3.55859 5.61149 3.55859 6.35715V26.6072C3.55859 27.3528 4.16293 27.9572 4.90859 27.9572H23.8086C24.5543 27.9572 25.1586 27.3528 25.1586 26.6072V6.35715C25.1586 5.61149 24.5543 5.00715 23.8086 5.00715ZM8.95859 5.00715H11.6586V2.30715H17.0586V5.00715H19.7586V6.35715H8.95859V5.00715ZM23.8086 26.6072H4.90859V6.35715H7.60859C7.60859 7.10282 8.21293 7.70715 8.95859 7.70715H19.7586C20.5043 7.70715 21.1086 7.10282 21.1086 6.35715H23.8086V26.6072Z" fill="#64A6F1"/>
<path d="M21.1094 10.4073H7.60938V11.7573H21.1094V10.4073Z" fill="#64A6F1"/>
<path d="M21.1094 14.4573H7.60938V15.8073H21.1094V14.4573Z" fill="#64A6F1"/>
</g>
<defs>
<clipPath id="clip0_5902_21241">
<rect width="27" height="27" fill="white" transform="translate(0.857422 0.957275)"/>
</clipPath>
</defs>
</svg>
