<svg width="28" height="28" viewBox="0 0 28 28" fill="none" xmlns="http://www.w3.org/2000/svg">
<path d="M14.1504 17.4841C16.0144 17.4841 17.5254 15.9731 17.5254 14.1091C17.5254 12.2452 16.0144 10.7341 14.1504 10.7341C12.2864 10.7341 10.7754 12.2452 10.7754 14.1091C10.7754 15.9731 12.2864 17.4841 14.1504 17.4841Z" stroke="#64A6F1" stroke-width="2.0271"/>
<path d="M4.76859 12.5782C5.30021 12.9122 5.64226 13.4813 5.64226 14.109C5.64225 14.7369 5.3002 15.3059 4.76859 15.6399C4.40683 15.8672 4.17376 16.0489 4.00793 16.265C3.64466 16.7385 3.48433 17.3368 3.56223 17.9284C3.62064 18.3721 3.88273 18.826 4.40691 19.734C4.93111 20.6419 5.1932 21.0958 5.54826 21.3683C6.02168 21.7316 6.62002 21.8919 7.21166 21.814C7.4817 21.7785 7.75553 21.6674 8.13317 21.4679C8.68834 21.1745 9.35224 21.1628 9.89604 21.4768C10.4398 21.7907 10.7615 22.3715 10.785 22.9989C10.801 23.4258 10.8417 23.7185 10.946 23.9702C11.1743 24.5215 11.6124 24.9595 12.1636 25.1879C12.5772 25.3591 13.1013 25.3591 14.1497 25.3591C15.1981 25.3591 15.7222 25.3591 16.1358 25.1879C16.687 24.9595 17.1251 24.5215 17.3535 23.9702C17.4577 23.7185 17.4985 23.4258 17.5145 22.999C17.5379 22.3715 17.8596 21.7907 18.4035 21.4768C18.9472 21.1629 19.611 21.1746 20.1661 21.468C20.5439 21.6676 20.8177 21.7786 21.0877 21.8141C21.6793 21.8921 22.2777 21.7317 22.7511 21.3684C23.1062 21.0961 23.3683 20.642 23.8926 19.7341C24.1259 19.3299 24.3073 19.0157 24.4419 18.7522M23.5308 15.64C22.9992 15.306 22.6572 14.737 22.6571 14.1092C22.6571 13.4814 22.9992 12.9122 23.5308 12.5782C23.8926 12.351 24.1255 12.1693 24.2914 11.9532C24.6546 11.4798 24.8149 10.8814 24.7371 10.2898C24.6787 9.84606 24.4166 9.3921 23.8923 8.48419C23.3682 7.57627 23.1061 7.12232 22.751 6.84987C22.2776 6.48659 21.6792 6.32627 21.0876 6.40415C20.8176 6.43971 20.5438 6.55071 20.1661 6.75031C19.6109 7.04373 18.9471 7.05543 18.4033 6.74146C17.8596 6.42752 17.5379 5.84679 17.5145 5.21941C17.4985 4.79247 17.4577 4.49977 17.3535 4.24809C17.1251 3.69678 16.687 3.25876 16.1358 3.0304C15.7222 2.85913 15.1981 2.85913 14.1497 2.85913C13.1013 2.85913 12.5772 2.85913 12.1636 3.0304C11.6124 3.25876 11.1743 3.69678 10.946 4.24809C10.8417 4.49975 10.801 4.79242 10.785 5.21931C10.7615 5.84675 10.4397 6.42753 9.89599 6.74146C9.35223 7.0554 8.68838 7.04367 8.13327 6.75028C7.75559 6.55066 7.48173 6.43966 7.21167 6.4041C6.62004 6.32621 6.02169 6.48654 5.54827 6.84981C5.19321 7.12226 4.93112 7.57622 4.40692 8.48413C4.17357 8.88833 3.99215 9.20255 3.85752 9.46595" stroke="#64A6F1" stroke-width="2.0271" stroke-linecap="round"/>
</svg>
