<svg width="30" height="43" viewBox="0 0 30 43" fill="none" xmlns="http://www.w3.org/2000/svg">
<path d="M1.2823 0.263022C0.867521 0.257764 0.526807 0.589765 0.521549 1.00454C0.519596 1.15357 0.56211 1.29974 0.643533 1.42457L7.24645 15.9516C3.21586 18.4759 0.531164 22.9558 0.531164 28.0551C0.531164 35.9282 6.92962 42.3266 14.8027 42.3266C22.6758 42.3266 29.0742 35.9282 29.0742 28.0551C29.0742 22.9557 26.3895 18.4759 22.3589 15.9516L28.9596 1.42983C29.1893 1.08431 29.0953 0.618008 28.7497 0.388461C28.6236 0.304635 28.4748 0.260769 28.3232 0.263022H19.3096C18.9685 0.258515 18.6671 0.484456 18.5758 0.813152L14.8028 9.11378L11.0292 0.81195C10.9375 0.483855 10.6365 0.258515 10.2959 0.263022H1.2823ZM2.44896 1.76529H3.8034L9.69829 14.7273C9.31206 14.8756 8.93349 15.0398 8.56423 15.2199L2.44896 1.76529ZM5.45349 1.76529H9.81217L15.2791 13.7924C15.1209 13.7872 14.9622 13.7836 14.8028 13.7836C13.5357 13.7836 12.3071 13.9503 11.137 14.2613L5.45349 1.76529ZM19.7934 1.76529H24.1521L18.4718 14.2623C17.9913 14.1345 17.5011 14.0305 17.0022 13.953L15.6279 10.9294L19.7934 1.76529ZM25.8024 1.76529H27.1566L21.0413 15.2199C20.673 15.0402 20.2954 14.8765 19.9103 14.7285L25.8024 1.76529ZM14.8027 15.2858C21.8638 15.2858 27.572 20.994 27.572 28.0551C27.572 35.1162 21.8638 40.8244 14.8027 40.8244C7.74159 40.8244 2.03343 35.1162 2.03343 28.0551C2.03343 20.994 7.74159 15.2858 14.8027 15.2858ZM14.8027 17.3692C8.9099 17.3692 4.11662 22.1625 4.11662 28.0553C4.11662 33.948 8.9099 38.741 14.8027 38.741C20.6955 38.741 25.4888 33.948 25.4888 28.0553C25.4888 22.1623 20.6956 17.3692 14.8027 17.3692ZM14.8027 18.8714C19.8837 18.8714 23.9865 22.9743 23.9865 28.0553C23.9865 33.1362 19.8837 37.2388 14.8027 37.2388C9.72173 37.2388 5.61889 33.1362 5.61889 28.0553C5.61889 22.9743 9.72173 18.8714 14.8027 18.8714ZM14.8291 22.8362C14.5466 22.8265 14.2826 22.9761 14.1458 23.2235L12.7978 25.6635L9.93295 26.2764C9.52734 26.3633 9.2688 26.7626 9.35578 27.1683C9.38432 27.3016 9.44862 27.4245 9.54161 27.5241L11.4456 29.5601L11.1433 32.4739C11.1007 32.8865 11.4005 33.2558 11.8132 33.2985C11.9487 33.3124 12.0854 33.2895 12.2087 33.2318L14.7336 32.0502L17.4115 33.2379C17.506 33.2798 17.6083 33.3019 17.7117 33.3025C18.1266 33.3048 18.4648 32.9704 18.467 32.5554C18.4672 32.5231 18.4654 32.491 18.4613 32.459L18.1177 29.6927L20.0751 27.5129C20.3522 27.2042 20.3265 26.7292 20.0178 26.452C19.9164 26.361 19.7922 26.2993 19.6585 26.2736L16.9215 25.7454L15.4533 23.2103C15.3235 22.9865 15.0877 22.8451 14.8291 22.8362ZM14.8186 25.1123L15.793 26.7947C15.9021 26.9829 16.0873 27.1147 16.3009 27.1558L18.0701 27.497L16.7713 28.9435C16.626 29.1053 16.5579 29.3221 16.5847 29.538L16.807 31.3263L15.0295 30.5379C14.8308 30.4499 14.6035 30.4521 14.4067 30.5444L12.7748 31.3084L12.9752 29.3742C12.9976 29.1581 12.9253 28.9428 12.7769 28.7839L11.5461 27.4676L13.4471 27.0606C13.6596 27.0151 13.8421 26.8797 13.9473 26.6894L14.8186 25.1123Z" fill="#0D78F0"/>
</svg>
