<svg width="12" height="15" viewBox="0 0 12 15" fill="none" xmlns="http://www.w3.org/2000/svg">
<path d="M5.96015 14.3635C5.17246 14.3598 4.53376 13.749 4.52597 12.9919H7.38007C7.38158 13.1753 7.3452 13.3571 7.27304 13.5268C7.08585 13.9397 6.70351 14.2408 6.24556 14.3361H6.242H6.23129H6.21845H6.21203C6.12913 14.3526 6.04481 14.3618 5.96015 14.3635ZM11.6684 12.3062H0.251953V10.9346L1.679 10.2489V6.47712C1.64141 5.50958 1.86876 4.54951 2.3383 3.69289C2.80569 2.89844 3.60459 2.3343 4.5331 2.14305V0.648071H7.3872V2.14305C9.22738 2.56412 10.2413 4.10299 10.2413 6.47712V10.2489L11.6684 10.9346V12.3062Z" fill="#B0C3CC"/>
</svg>
