<svg width="9" height="38" viewBox="0 0 9 38" fill="none" xmlns="http://www.w3.org/2000/svg">
<path d="M4.20326 37.7757C4.00871 37.7757 3.82337 37.6902 3.69849 37.539L0.412248 33.5955C0.31366 33.4772 0.259766 33.3287 0.259766 33.1749V9.51396C0.259766 8.42687 1.14442 7.54221 2.23151 7.54221H6.175C6.53649 7.54221 6.83225 7.24645 6.83225 6.88496V3.17282C6.83225 2.84157 6.74681 2.28422 6.175 2.28422H2.23151C1.65971 2.28422 1.57426 2.84157 1.57426 3.17282V4.25597C1.57426 4.61877 1.27982 4.91322 0.917014 4.91322C0.554213 4.91322 0.259766 4.61877 0.259766 4.25597V3.17282C0.259766 1.87542 1.07081 0.969727 2.23151 0.969727H6.175C7.3357 0.969727 8.14675 1.87542 8.14675 3.17282V6.88496C8.14675 7.97205 7.26209 8.85671 6.175 8.85671H2.23151C1.87002 8.85671 1.57426 9.15247 1.57426 9.51396V32.937L4.20326 36.0905L6.83225 32.937V12.143C6.83225 11.7802 7.1267 11.4857 7.4895 11.4857C7.8523 11.4857 8.14675 11.7802 8.14675 12.143V33.1749C8.14675 33.3287 8.09286 33.4772 7.99427 33.5955L4.70803 37.539C4.58315 37.6902 4.3978 37.7757 4.20326 37.7757Z" fill="#0D78F0"/>
<path d="M4.20326 37.7757C4.00871 37.7757 3.82337 37.6902 3.69849 37.539L0.412248 33.5955C0.31366 33.4772 0.259766 33.3287 0.259766 33.1749V9.51396C0.259766 8.42687 1.14442 7.54221 2.23151 7.54221H6.175C6.53649 7.54221 6.83225 7.24645 6.83225 6.88496V3.17282C6.83225 2.84157 6.74681 2.28422 6.175 2.28422H2.23151C1.65971 2.28422 1.57426 2.84157 1.57426 3.17282V4.25597C1.57426 4.61877 1.27982 4.91322 0.917014 4.91322C0.554213 4.91322 0.259766 4.61877 0.259766 4.25597V3.17282C0.259766 1.87542 1.07081 0.969727 2.23151 0.969727H6.175C7.3357 0.969727 8.14675 1.87542 8.14675 3.17282V6.88496C8.14675 7.97205 7.26209 8.85671 6.175 8.85671H2.23151C1.87002 8.85671 1.57426 9.15247 1.57426 9.51396V32.937L4.20326 36.0905L6.83225 32.937V12.143C6.83225 11.7802 7.1267 11.4857 7.4895 11.4857C7.8523 11.4857 8.14675 11.7802 8.14675 12.143V33.1749C8.14675 33.3287 8.09286 33.4772 7.99427 33.5955L4.70803 37.539C4.58315 37.6902 4.3978 37.7757 4.20326 37.7757Z" fill="#0D78F0"/>
</svg>
