<svg width="16" height="13" viewBox="0 0 16 13" fill="none" xmlns="http://www.w3.org/2000/svg">
<path fill-rule="evenodd" clip-rule="evenodd" d="M2.7804 0.781128C2.7804 0.36348 3.11897 0.0249023 3.53662 0.0249023H12.6113C13.029 0.0249023 13.3676 0.36348 13.3676 0.781128V5.31848C14.6205 5.31848 15.6362 6.33417 15.6362 7.58716V10.6121C15.6362 11.8651 14.6205 12.8807 13.3676 12.8807H2.7804C1.52744 12.8807 0.511719 11.8651 0.511719 10.6121V7.58716C0.511719 6.33417 1.52744 5.31848 2.7804 5.31848V0.781128ZM2.7804 6.83093C2.36275 6.83093 2.02417 7.16949 2.02417 7.58716V10.6121C2.02417 11.0297 2.36275 11.3683 2.7804 11.3683H13.3676C13.7852 11.3683 14.1238 11.0297 14.1238 10.6121V7.58716C14.1238 7.16949 13.7852 6.83093 13.3676 6.83093V8.34338C13.3676 8.76105 13.029 9.09961 12.6113 9.09961H3.53662C3.11897 9.09961 2.7804 8.76105 2.7804 8.34338V6.83093ZM4.29285 1.53735V6.07471V7.58716H11.8551V6.07471V1.53735H4.29285ZM5.8053 3.80603C5.8053 3.38838 6.14388 3.0498 6.56152 3.0498H9.58643C10.0041 3.0498 10.3427 3.38838 10.3427 3.80603C10.3427 4.22368 10.0041 4.56226 9.58643 4.56226H6.56152C6.14388 4.56226 5.8053 4.22368 5.8053 3.80603ZM5.8053 6.07471C5.8053 5.65704 6.14388 5.31848 6.56152 5.31848H9.58643C10.0041 5.31848 10.3427 5.65704 10.3427 6.07471C10.3427 6.49237 10.0041 6.83093 9.58643 6.83093H6.56152C6.14388 6.83093 5.8053 6.49237 5.8053 6.07471Z" fill="#3492FE"/>
</svg>
