<svg width="23" height="24" viewBox="0 0 23 24" fill="none" xmlns="http://www.w3.org/2000/svg">
<g clip-path="url(#clip0_6636_10950)">
<path d="M11.6848 22.4758L16.3132 21.307C18.955 19.1133 20.6377 15.8044 20.6377 12.1022C20.6377 6.39167 16.6353 1.616 11.2827 0.427246C5.01673 0.638566 0.00195312 5.78472 0.00195312 12.1021C0.00195312 15.3471 1.32527 18.2828 3.46138 20.3996L11.6848 22.4758Z" fill="white"/>
<path d="M20.394 12.1028C20.394 15.932 18.5513 19.3305 15.7046 21.4609L19.9042 20.4004C22.0404 18.2836 23.364 15.3479 23.364 12.1028C23.364 5.65121 18.1339 0.421143 11.6823 0.421143C11.1792 0.421143 10.6836 0.452993 10.1973 0.514687C15.9477 1.24425 20.394 6.1543 20.394 12.1028Z" fill="#F1F4F8"/>
<path d="M14.5842 4.84505C14.5842 4.24842 14.1005 3.76477 13.5039 3.76477H9.78116C8.40806 3.76477 7.29492 4.87791 7.29492 6.25101V9.0114H16.0657V6.29016C16.0657 5.69353 15.5821 5.20988 14.9854 5.20988H14.949C14.7475 5.20988 14.5842 5.04656 14.5842 4.84505Z" fill="#365E7D"/>
<path d="M14.9854 5.20992H14.949C14.7475 5.20992 14.5842 5.04656 14.5842 4.84505C14.5842 4.24842 14.1005 3.76477 13.5039 3.76477H13.0957V9.01141H16.0657V6.29016C16.0657 5.69362 15.582 5.20992 14.9854 5.20992Z" fill="#2B4D66"/>
<path d="M19.3951 17.4122C19.1095 17.1301 18.7562 16.9119 18.3552 16.785L15.1659 15.7753L11.6821 15.6528L8.19672 15.7753L5.00748 16.785C3.92857 17.1266 3.19531 18.1278 3.19531 19.2596V20.1308C5.23911 22.2905 8.09848 23.6704 11.2805 23.7777C14.8456 22.9859 17.8117 20.6029 19.3951 17.4122Z" fill="#4A80AA"/>
<path d="M20.1675 20.131V19.2597C20.1675 18.4595 19.8006 17.7249 19.2044 17.2422C17.511 20.6931 14.1657 23.1865 10.1992 23.6907C10.678 23.7514 11.1656 23.7837 11.6606 23.7846C12.1362 23.7838 12.6056 23.7563 13.0672 23.7033C15.8521 23.3742 18.3369 22.0654 20.1675 20.131Z" fill="#407093"/>
<path d="M11.9476 23.6106C12.6544 22.2073 14.4949 18.223 13.9701 15.7341L11.6839 14.8444L9.39556 15.7342C8.85455 18.2998 10.827 22.4547 11.4801 23.7329C11.6371 23.6952 11.793 23.6544 11.9476 23.6106Z" fill="white"/>
<path d="M13.151 22.4978L12.2241 18.8511H11.1395L10.2148 22.4879L11.3583 23.7609C11.6485 23.6944 11.9348 23.6173 12.2166 23.5301L13.151 22.4978Z" fill="#E28086"/>
<path d="M11.3777 23.7797C11.4724 23.7821 11.5673 23.7838 11.6625 23.784C11.7727 23.7838 11.8825 23.7819 11.9921 23.7788L12.581 23.1282C12.1175 23.2908 11.6406 23.4251 11.1523 23.5288L11.3777 23.7797Z" fill="#DD636E"/>
<path d="M13.6395 15.3959V13.3395H9.73438V15.3959C9.73438 16.4743 11.687 17.6522 11.687 17.6522C11.687 17.6522 13.6395 16.4743 13.6395 15.3959Z" fill="#FFDDCE"/>
<path d="M16.0657 8.6497H15.3192C14.9041 8.6497 14.5676 8.31316 14.5676 7.89801V7.48664C14.5676 6.94586 14.0385 6.56351 13.525 6.73322C12.3275 7.12902 11.0345 7.12912 9.83692 6.73349L9.83551 6.73303C9.32206 6.56342 8.79305 6.94577 8.79305 7.4865V7.89805C8.79305 8.31321 8.45652 8.64974 8.04136 8.64974H7.29492V9.87897C7.29492 10.193 7.54955 10.4477 7.86367 10.4477C7.96279 10.4477 8.04342 10.5253 8.04967 10.6243C8.16959 12.5256 9.74876 14.0309 11.6803 14.0309C13.6119 14.0309 15.1911 12.5256 15.311 10.6243C15.3173 10.5254 15.3979 10.4477 15.497 10.4477C15.8111 10.4477 16.0658 10.1931 16.0658 9.87897V8.6497H16.0657Z" fill="#FFDDCE"/>
<path d="M15.3194 8.64955C14.9043 8.64955 14.5677 8.31302 14.5677 7.89786V7.48649C14.5677 6.94571 14.0386 6.56337 13.5252 6.73307C13.3834 6.77993 13.2401 6.82082 13.0959 6.8566V10.9165C13.0759 12.2375 12.3521 13.3871 11.2832 14.0084C11.4138 14.0226 11.5462 14.0306 11.6805 14.0306C13.6121 14.0306 15.1912 12.5254 15.3112 10.624C15.3174 10.5252 15.398 10.4475 15.4972 10.4475C15.8112 10.4475 16.0659 10.1929 16.0659 9.87873V8.64951H15.3194V8.64955Z" fill="#FFCBBE"/>
<path d="M9.72662 14.8444L8.19531 16.0886L9.80118 18.0742C9.99653 18.2644 10.304 18.276 10.5133 18.1013L11.7209 17.0925L9.72662 14.8444Z" fill="white"/>
<path d="M13.6304 14.8446L11.7188 17.0927L12.8538 18.0632C13.0617 18.241 13.3707 18.2321 13.568 18.0426L15.1623 16.0888L13.6304 14.8446Z" fill="white"/>
<path d="M9.72869 14.8444L7.48106 15.9486C7.30994 16.0327 7.24122 16.2408 7.3286 16.4103L7.76895 17.264C7.88307 17.4852 7.84095 17.7548 7.66482 17.9307C7.57415 18.0212 7.47595 18.1192 7.39084 18.2042C7.23853 18.3562 7.18381 18.5809 7.25089 18.7854C7.78255 20.4061 10.3413 22.8844 11.3096 23.781C11.3748 23.7828 11.44 23.784 11.5054 23.7847C10.8032 22.4188 8.31475 17.2295 9.72869 14.8444Z" fill="#365E7D"/>
<path d="M15.6994 17.9307C15.5232 17.7548 15.4811 17.4852 15.5952 17.264L16.0356 16.4102C16.123 16.2408 16.0542 16.0326 15.8831 15.9486L13.6355 14.8444C15.0491 17.2288 12.5624 22.416 11.8594 23.7836C11.9254 23.7825 11.9914 23.7808 12.0572 23.7786C13.0275 22.8799 15.5821 20.4046 16.1133 18.7854C16.1804 18.5809 16.1257 18.3563 15.9733 18.2042C15.8882 18.1192 15.79 18.0211 15.6994 17.9307Z" fill="#365E7D"/>
<path d="M11.7224 17.0914L10.5332 18.0846L11.1391 18.8503H12.2236L12.8296 18.0394L11.7224 17.0914Z" fill="#DD636E"/>
</g>
<defs>
<clipPath id="clip0_6636_10950">
<rect x="0.00585938" y="0.421387" width="23" height="22.8514" rx="11.4257" fill="white"/>
</clipPath>
</defs>
</svg>
