<svg width="13" height="12" viewBox="0 0 13 12" fill="none" xmlns="http://www.w3.org/2000/svg">
<path d="M10.415 9.48201L8.75187 7.82374C9.28847 7.14012 9.57963 6.29592 9.57855 5.42685C9.57855 4.65287 9.34904 3.89628 8.91904 3.25274C8.48904 2.6092 7.87787 2.10762 7.16281 1.81143C6.44775 1.51525 5.66091 1.43775 4.90181 1.58874C4.1427 1.73974 3.44542 2.11245 2.89813 2.65973C2.35085 3.20701 1.97814 3.9043 1.82715 4.6634C1.67615 5.42251 1.75365 6.20934 2.04984 6.9244C2.34603 7.63947 2.8476 8.25064 3.49114 8.68064C4.13468 9.11064 4.89128 9.34015 5.66525 9.34015C6.53433 9.34123 7.37852 9.05007 8.06215 8.51346L9.72041 10.1766C9.76588 10.2225 9.81998 10.2589 9.87959 10.2837C9.9392 10.3085 10.0031 10.3213 10.0677 10.3213C10.1323 10.3213 10.1962 10.3085 10.2558 10.2837C10.3154 10.2589 10.3695 10.2225 10.415 10.1766C10.4609 10.1311 10.4973 10.077 10.5221 10.0174C10.5469 9.95782 10.5597 9.89388 10.5597 9.82931C10.5597 9.76473 10.5469 9.7008 10.5221 9.64119C10.4973 9.58158 10.4609 9.52748 10.415 9.48201ZM2.73028 5.42685C2.73028 4.84637 2.90241 4.27892 3.22491 3.79627C3.54741 3.31361 4.00579 2.93743 4.54209 2.71529C5.07838 2.49315 5.66851 2.43502 6.23784 2.54827C6.80717 2.66152 7.33013 2.94105 7.74059 3.35151C8.15106 3.76197 8.43059 4.28494 8.54383 4.85426C8.65708 5.42359 8.59896 6.01372 8.37681 6.55002C8.15467 7.08631 7.77849 7.54469 7.29584 7.86719C6.81318 8.18969 6.24574 8.36182 5.66525 8.36182C4.88685 8.36182 4.14033 8.0526 3.58991 7.50219C3.0395 6.95177 2.73028 6.20525 2.73028 5.42685Z" fill="#B8D9FF"/>
</svg>
