<svg width="34" height="43" viewBox="0 0 34 43" fill="none" xmlns="http://www.w3.org/2000/svg">
<path d="M33.4002 31.3309C33.4002 29.3912 32.0111 27.771 30.1759 27.4098V24.7661C30.1759 24.5257 30.064 24.2989 29.8731 24.1527C29.6822 24.0063 29.4341 23.9574 29.2019 24.0198L28.3409 24.2517C26.0315 20.3954 22.3722 19.2942 20.5714 18.9827V16.9749C21.1165 16.5066 21.6209 15.928 22.0715 15.2459C22.2545 14.9689 22.4242 14.6779 22.5832 14.3768C22.5853 14.3776 22.5872 14.3785 22.5895 14.3791C22.7913 14.4446 22.9968 14.4756 23.2008 14.4756C24.1383 14.4756 25.1139 13.8378 25.3672 12.8002C25.9579 10.3801 23.976 9.8738 23.942 9.86761C24.013 9.27425 24.0511 8.66822 24.0511 8.05373C24.051 1.67733 20.0021 0.939911 16.9566 0.939911C13.9114 0.939911 9.86285 1.67733 9.86285 8.05394C9.86285 8.66842 9.90097 9.27446 9.97198 9.86782C9.93807 9.874 7.93541 10.402 8.5467 12.8007C8.8104 13.8356 9.77577 14.4758 10.7133 14.4758C10.917 14.4758 11.1226 14.4447 11.3245 14.3793C11.3267 14.3786 11.3286 14.3777 11.3308 14.377C11.4898 14.6781 11.6594 14.9691 11.8424 15.2461C12.2931 15.9282 12.7974 16.5068 13.3423 16.9751V18.9829C11.5414 19.2944 7.88244 20.396 5.57299 24.2519L4.71212 24.02C4.47985 23.9578 4.2318 24.0066 4.04096 24.1529C3.85001 24.2991 3.7382 24.5259 3.7382 24.7663V27.41C1.90268 27.771 0.513672 29.3913 0.513672 31.3311C0.513672 33.2707 1.90268 34.8913 3.7382 35.2524V38.5705C3.7382 38.9133 3.96398 39.2152 4.29291 39.312L16.731 42.9726C16.8026 42.9936 16.8761 43.004 16.9492 43.004C16.9517 43.004 16.9545 43.004 16.9571 43.004C17.0311 43.0042 17.1088 42.9944 17.183 42.9726L29.6212 39.3135C29.95 39.2167 30.1759 38.9149 30.1759 38.5721V35.2523C32.0112 34.8911 33.4002 33.2705 33.4002 31.3309ZM23.6724 11.4138C23.9131 11.5704 24.016 11.9552 23.8967 12.3241C23.783 12.6747 23.4977 12.9183 23.2232 12.9289C23.4006 12.4422 23.5509 11.936 23.6724 11.4138ZM10.0171 12.3242C9.89778 11.9554 10.0006 11.5706 10.2415 11.4139C10.363 11.936 10.5133 12.4422 10.6905 12.9289C10.4162 12.918 10.1308 12.6747 10.0171 12.3242ZM16.9566 2.48565C20.2536 2.48565 22.4593 3.41609 22.5032 7.91853C19.7734 8.48273 17.2502 7.9817 14.9958 6.42452C13.7336 5.55251 12.8816 4.55675 12.4691 4.01429C13.4341 2.81273 15.0036 2.48565 16.9566 2.48565ZM13.1321 14.394C12.0207 12.7116 11.4086 10.46 11.4086 8.05404C11.4086 7.04972 11.5137 6.21924 11.7118 5.53396C12.2446 6.1502 13.0285 6.93585 14.063 7.65864C15.5017 8.66399 17.6428 9.68429 20.4057 9.68429C21.0466 9.68429 21.7213 9.62854 22.4281 9.50581C22.2327 11.3561 21.6659 13.0556 20.7817 14.3941C19.7355 15.9776 18.3769 16.8497 16.9565 16.8497C15.5364 16.8496 14.1782 15.9775 13.1321 14.394ZM14.1913 20.425C14.5867 20.3858 14.888 20.0532 14.888 19.6559V17.9581C15.5481 18.2458 16.243 18.3953 16.9566 18.3953C17.6704 18.3953 18.3654 18.2458 19.0257 17.958V19.6559C19.0257 20.0531 19.327 20.3858 19.7223 20.425C20.0756 20.4601 20.6928 20.549 21.444 20.7701C21.063 21.9443 19.1636 22.8683 16.957 22.8683C14.7503 22.8683 12.8508 21.9442 12.4698 20.7701C13.2209 20.549 13.8381 20.4601 14.1913 20.425ZM2.05931 31.3309C2.05931 30.249 2.76376 29.3284 3.73809 29.004V33.6573C2.76376 33.333 2.05931 32.4127 2.05931 31.3309ZM16.1762 41.1979L5.28384 37.9922V25.7747L16.1762 28.7083V41.1979ZM16.9569 27.3178L7.1344 24.6722C8.26692 22.9585 9.7127 21.9311 11.0252 21.3168C11.6652 23.1144 14.0412 24.4141 16.9571 24.4141C19.873 24.4141 22.2482 23.1143 22.8878 21.3164C24.2004 21.9306 25.6467 22.9581 26.7794 24.6722L16.9569 27.3178ZM28.6301 37.9937L17.7377 41.198V28.7083L28.6301 25.7747V37.9937ZM30.1759 33.6573V29.004C31.15 29.3285 31.8545 30.249 31.8545 31.3309C31.8545 32.4126 31.15 33.3329 30.1759 33.6573Z" fill="#0D78F0"/>
</svg>
