<svg width="32" height="42" viewBox="0 0 32 42" fill="none" xmlns="http://www.w3.org/2000/svg">
<path fill-rule="evenodd" clip-rule="evenodd" d="M10.6512 1.07837H21.3341C22.8091 1.07837 24.0048 2.02 24.0048 3.18157C24.0048 4.34313 22.8091 5.28476 21.3341 5.28476H10.6512C9.17619 5.28476 7.98047 4.34313 7.98047 3.18157C7.98047 2.02 9.17619 1.07837 10.6512 1.07837Z" stroke="#0D78F0" stroke-width="2.00304" stroke-linecap="round" stroke-linejoin="round"/>
<path d="M8.98136 5.28479C7.99661 5.28479 6.43868 5.28479 4.30759 5.28479C3.01696 5.28479 1.9707 6.48051 1.9707 7.95551V37.3335C1.9707 38.8085 3.01696 40.0042 4.30759 40.0042H27.6764C28.9671 40.0042 30.0133 38.8085 30.0133 37.3335V7.95551C30.0133 6.48051 28.9671 5.28479 27.6764 5.28479C25.5992 5.28479 24.0413 5.28479 23.0027 5.28479" stroke="#0D78F0" stroke-width="2.00304" stroke-linecap="round" stroke-linejoin="round"/>
<path d="M14.6895 13.0967H21.2072" stroke="#0D78F0" stroke-width="2.00304" stroke-linecap="round" stroke-linejoin="round"/>
<path d="M14.6895 20.3075H21.2072" stroke="#0D78F0" stroke-width="2.00304" stroke-linecap="round" stroke-linejoin="round"/>
<path d="M14.6895 27.5185H21.2072" stroke="#0D78F0" stroke-width="2.00304" stroke-linecap="round" stroke-linejoin="round"/>
<path d="M10.7793 13.0967H12.0828" stroke="#0D78F0" stroke-width="2.00304" stroke-linecap="round" stroke-linejoin="round"/>
<path d="M10.7793 20.3075H12.0828" stroke="#0D78F0" stroke-width="2.00304" stroke-linecap="round" stroke-linejoin="round"/>
<path d="M10.7793 27.5185H12.0828" stroke="#0D78F0" stroke-width="2.00304" stroke-linecap="round" stroke-linejoin="round"/>
</svg>
