<svg width="25" height="34" viewBox="0 0 25 34" fill="none" xmlns="http://www.w3.org/2000/svg">
<path d="M23.2205 32.4161C23.2214 30.982 22.9396 29.5617 22.3914 28.2364C21.8432 26.9112 21.0392 25.7069 20.0254 24.6925C19.0115 23.6781 17.8078 22.8733 16.4829 22.3243C15.1579 21.7753 13.7378 21.4927 12.3036 21.4927C10.8694 21.4927 9.44931 21.7753 8.12439 22.3243C6.79946 22.8733 5.5957 23.6781 4.58188 24.6925C3.56807 25.7069 2.76407 26.9112 2.21583 28.2364C1.66759 29.5617 1.38586 30.982 1.38672 32.4161H23.2205Z" stroke="#0D78F0" stroke-width="1.97175"/>
<path d="M17.1751 13.967C17.1744 14.6742 17.0329 15.3742 16.7589 16.0263C16.4849 16.6783 16.0839 17.2692 15.5792 17.7647C15.0745 18.2602 14.4763 18.6503 13.8194 18.9123C13.1625 19.1743 12.46 19.3029 11.7528 19.2907C10.3372 19.2343 8.99928 18.6281 8.02355 17.6008C7.04782 16.5735 6.51119 15.2062 6.52771 13.7895V6.37577C6.52758 6.36635 6.53082 6.3572 6.53685 6.34997C6.54288 6.34274 6.55129 6.3379 6.56058 6.33633C8.36004 6.06326 10.1761 5.91393 11.996 5.8894C13.7375 5.91279 15.475 6.06215 17.1949 6.33633C17.2053 6.33633 17.2153 6.34049 17.2227 6.34788C17.2301 6.35528 17.2343 6.36531 17.2343 6.37577L17.1751 13.967Z" stroke="#0D78F0" stroke-width="1.97175"/>
<path d="M6.52573 8.80104L1.09029 6.3035C1.0835 6.29863 1.07797 6.29221 1.07416 6.28478C1.07035 6.27736 1.06836 6.26913 1.06836 6.26077C1.06836 6.25242 1.07035 6.24419 1.07416 6.23676C1.07797 6.22934 1.0835 6.22292 1.09029 6.21805L11.856 1.07837H11.8955L22.6283 6.16547C22.6351 6.16956 22.6408 6.17534 22.6447 6.18225C22.6486 6.18916 22.6506 6.19697 22.6506 6.20491C22.6506 6.21285 22.6486 6.22065 22.6447 6.22756C22.6408 6.23447 22.6351 6.24025 22.6283 6.24434L17.2323 8.80104" stroke="#0D78F0" stroke-width="1.97175"/>
<path d="M6.52681 11.5681H5.002C5.002 11.5681 3.6875 11.5681 3.6875 13.6056C3.6875 15.4853 5.002 15.4853 5.002 15.4853H6.78971" stroke="#0D78F0" stroke-width="1.97175"/>
<path d="M17.1738 11.8047H18.6986C18.6986 11.8047 20.0131 11.8047 20.0131 13.8356C20.0131 15.7153 18.6986 15.7153 18.6986 15.7153H16.9043" stroke="#0D78F0" stroke-width="1.97175"/>
<path d="M22.0645 17.3518V6.55322" stroke="#0D78F0" stroke-width="1.97175"/>
<path d="M22.064 20.1517C22.8372 20.1517 23.4639 19.5249 23.4639 18.7517C23.4639 17.9785 22.8372 17.3518 22.064 17.3518C21.2908 17.3518 20.6641 17.9785 20.6641 18.7517C20.6641 19.5249 21.2908 20.1517 22.064 20.1517Z" stroke="#0D78F0" stroke-width="1.97175"/>
</svg>
